<svg width="24" height="24" viewBox="0 0 24 24" fill="none" xmlns="http://www.w3.org/2000/svg">
<path d="M4.2565 16.5933C3.13983 14.7093 2.74924 12.4825 3.15804 10.331C3.56684 8.1794 4.74693 6.25104 6.47677 4.90789C8.2066 3.56474 10.3672 2.89919 12.553 3.03617C14.7388 3.17315 16.7994 4.10325 18.348 5.65186C19.8966 7.20047 20.8267 9.26108 20.9637 11.4469C21.1007 13.6326 20.4351 15.7932 19.0919 17.5231C17.7488 19.2529 15.8204 20.433 13.6689 20.8418C11.5173 21.2506 9.29049 20.86 7.4065 19.7433L4.294 20.6246C4.16648 20.6619 4.03128 20.6642 3.90256 20.6313C3.77384 20.5983 3.65635 20.5314 3.5624 20.4374C3.46845 20.3435 3.4015 20.226 3.36858 20.0973C3.33565 19.9686 3.33796 19.8334 3.37525 19.7058L4.2565 16.5933Z" stroke="#FA8232" stroke-width="1.5" stroke-linecap="round" stroke-linejoin="round"/>
<path d="M12 13.125C12.6213 13.125 13.125 12.6213 13.125 12C13.125 11.3787 12.6213 10.875 12 10.875C11.3787 10.875 10.875 11.3787 10.875 12C10.875 12.6213 11.3787 13.125 12 13.125Z" fill="#FA8232"/>
<path d="M7.5 13.125C8.12132 13.125 8.625 12.6213 8.625 12C8.625 11.3787 8.12132 10.875 7.5 10.875C6.87868 10.875 6.375 11.3787 6.375 12C6.375 12.6213 6.87868 13.125 7.5 13.125Z" fill="#FA8232"/>
<path d="M16.5 13.125C17.1213 13.125 17.625 12.6213 17.625 12C17.625 11.3787 17.1213 10.875 16.5 10.875C15.8787 10.875 15.375 11.3787 15.375 12C15.375 12.6213 15.8787 13.125 16.5 13.125Z" fill="#FA8232"/>
</svg>
