<svg width="296" height="196" viewBox="0 0 296 196" fill="none" xmlns="http://www.w3.org/2000/svg">
<rect width="296" height="196" rx="4" fill="url(#paint0_radial_927_24322)"/>
<g clip-path="url(#clip0_927_24322)">
<path d="M63.2118 167.079V167.159H63.2864C63.3004 167.159 63.3142 167.156 63.3264 167.149C63.3313 167.146 63.3352 167.141 63.3378 167.136C63.3404 167.13 63.3417 167.124 63.3414 167.118C63.3417 167.113 63.3404 167.107 63.3378 167.102C63.3352 167.097 63.3312 167.092 63.3264 167.089C63.3144 167.082 63.3005 167.078 63.2864 167.079H63.2118V167.079ZM63.2872 167.023C63.3192 167.021 63.3509 167.03 63.3768 167.049C63.3872 167.057 63.3955 167.068 63.4009 167.081C63.4064 167.093 63.4089 167.106 63.4082 167.119C63.4087 167.131 63.4067 167.142 63.4023 167.153C63.398 167.164 63.3914 167.174 63.383 167.181C63.363 167.199 63.3379 167.209 63.3114 167.211L63.4114 167.325H63.3344L63.2424 167.212H63.2126V167.325H63.1482V167.023H63.2882L63.2872 167.023ZM63.2672 167.429C63.301 167.429 63.3344 167.422 63.3654 167.409C63.3953 167.396 63.4224 167.378 63.4454 167.355C63.4685 167.332 63.4869 167.305 63.4996 167.275C63.5259 167.212 63.5259 167.141 63.4996 167.078C63.4867 167.048 63.4683 167.021 63.4454 166.998C63.4224 166.975 63.3953 166.957 63.3654 166.944C63.3343 166.931 63.3009 166.925 63.2672 166.925C63.233 166.925 63.199 166.931 63.1672 166.944C63.1367 166.957 63.1089 166.975 63.0854 166.998C63.05 167.034 63.0261 167.08 63.0166 167.13C63.0071 167.179 63.0125 167.23 63.032 167.277C63.0442 167.307 63.0624 167.334 63.0854 167.357C63.1089 167.38 63.1367 167.398 63.1672 167.411C63.1988 167.424 63.2329 167.431 63.2672 167.431V167.429ZM63.2672 166.853C63.3551 166.853 63.4395 166.887 63.5022 166.949C63.5324 166.978 63.5565 167.013 63.573 167.052C63.5901 167.092 63.5989 167.135 63.5989 167.178C63.5989 167.221 63.5901 167.264 63.573 167.304C63.5561 167.343 63.5321 167.378 63.5022 167.407C63.4715 167.437 63.4358 167.46 63.3968 167.477C63.3558 167.494 63.3117 167.503 63.2672 167.503C63.2222 167.503 63.1775 167.495 63.136 167.477C63.0965 167.461 63.0605 167.437 63.0298 167.407C62.9999 167.377 62.9762 167.34 62.96 167.301C62.9429 167.261 62.9341 167.218 62.9341 167.175C62.9341 167.131 62.9429 167.088 62.96 167.049C62.9765 167.01 63.0006 166.975 63.0308 166.945C63.0611 166.915 63.0972 166.891 63.137 166.875C63.1785 166.858 63.2232 166.849 63.2682 166.85L63.2672 166.853ZM32.6432 165.689C32.6432 165.114 33.0212 164.642 33.639 164.642C34.2294 164.642 34.6278 165.094 34.6278 165.689C34.6278 166.284 34.2294 166.736 33.639 166.736C33.0212 166.736 32.6432 166.264 32.6432 165.689ZM35.3008 165.689V164.053H34.587V164.452C34.3606 164.157 34.0172 163.972 33.5502 163.972C32.6302 163.972 31.9082 164.691 31.9082 165.69C31.9082 166.688 32.6298 167.407 33.5502 167.407C34.017 167.407 34.3606 167.222 34.587 166.928V167.325H35.3V165.689H35.3008ZM59.4192 165.689C59.4192 165.114 59.7972 164.642 60.4152 164.642C61.0062 164.642 61.404 165.094 61.404 165.689C61.404 166.284 61.0062 166.736 60.4152 166.736C59.7974 166.736 59.4192 166.264 59.4192 165.689ZM62.0776 165.689V162.74H61.3632V164.452C61.1368 164.157 60.7934 163.972 60.3264 163.972C59.4064 163.972 58.6844 164.691 58.6844 165.69C58.6844 166.688 59.406 167.407 60.3264 167.407C60.7934 167.407 61.1368 167.222 61.3632 166.928V167.325H62.0776V165.689ZM44.16 164.608C44.62 164.608 44.9154 164.895 44.9908 165.401H43.2876C43.3638 164.929 43.6516 164.608 44.1602 164.608H44.16ZM44.1744 163.971C43.2124 163.971 42.5394 164.668 42.5394 165.688C42.5394 166.728 43.2394 167.405 44.2222 167.405C44.7166 167.405 45.1694 167.282 45.5678 166.947L45.218 166.42C44.9428 166.639 44.5924 166.762 44.263 166.762C43.803 166.762 43.3842 166.55 43.2812 165.961H45.7186C45.7256 165.873 45.7328 165.783 45.7328 165.688C45.7256 164.668 45.0928 163.97 44.174 163.97L44.1744 163.971ZM52.792 165.688C52.792 165.113 53.17 164.641 53.7878 164.641C54.3782 164.641 54.7766 165.093 54.7766 165.688C54.7766 166.283 54.3782 166.735 53.7878 166.735C53.17 166.735 52.7918 166.262 52.7918 165.688H52.792ZM55.4494 165.688V164.053H54.736V164.452C54.5088 164.157 54.1662 163.972 53.6992 163.972C52.7792 163.972 52.0572 164.691 52.0572 165.69C52.0572 166.688 52.7788 167.407 53.6992 167.407C54.1662 167.407 54.5088 167.222 54.736 166.928V167.325H55.4496V165.689L55.4494 165.688ZM48.761 165.688C48.761 166.68 49.4542 167.405 50.5122 167.405C51.0066 167.405 51.336 167.295 51.6922 167.015L51.3494 166.44C51.0814 166.632 50.8 166.735 50.4894 166.735C49.9196 166.728 49.5006 166.317 49.5006 165.688C49.5006 165.058 49.9196 164.648 50.4894 164.641C50.7992 164.641 51.0806 164.743 51.3494 164.935L51.6922 164.36C51.3354 164.08 51.006 163.97 50.5122 163.97C49.4542 163.97 48.761 164.695 48.761 165.688ZM57.963 163.97C57.5512 163.97 57.283 164.162 57.0976 164.45V164.053H56.3902V167.323H57.1048V165.49C57.1048 164.949 57.3382 164.648 57.8048 164.648C57.9576 164.646 58.1093 164.674 58.2512 164.731L58.4712 164.06C58.3132 163.998 58.1072 163.971 57.9626 163.971L57.963 163.97ZM38.8298 164.313C38.4864 164.088 38.0132 163.971 37.4912 163.971C36.6596 163.971 36.1242 164.368 36.1242 165.018C36.1242 165.551 36.5228 165.88 37.2568 165.982L37.594 166.03C37.9854 166.085 38.1702 166.188 38.1702 166.372C38.1702 166.625 37.9102 166.769 37.422 166.769C36.9276 166.769 36.5708 166.612 36.3302 166.427L35.9948 166.982C36.3862 167.269 36.8806 167.406 37.416 167.406C38.364 167.406 38.9134 166.961 38.9134 166.339C38.9134 165.764 38.481 165.463 37.7666 165.361L37.4302 165.312C37.1212 165.272 36.8736 165.21 36.8736 164.991C36.8736 164.752 37.107 164.608 37.4986 164.608C37.9176 164.608 38.3232 164.766 38.522 164.889L38.831 164.314L38.8298 164.313ZM48.04 163.972C47.6282 163.972 47.36 164.164 47.1754 164.451V164.053H46.468V167.323H47.1818V165.49C47.1818 164.949 47.4152 164.648 47.8818 164.648C48.0346 164.646 48.1863 164.674 48.3282 164.731L48.5482 164.06C48.3902 163.998 48.1842 163.971 48.0396 163.971L48.04 163.972ZM41.9488 164.053H40.7816V163.061H40.06V164.053H39.3942V164.703H40.06V166.195C40.06 166.953 40.3556 167.405 41.2 167.405C41.5098 167.405 41.8666 167.31 42.093 167.152L41.8868 166.544C41.6738 166.666 41.4404 166.728 41.2548 166.728C40.898 166.728 40.7816 166.509 40.7816 166.181V164.704H41.9488V164.053ZM31.277 167.324V165.272C31.277 164.499 30.7826 163.979 29.9856 163.972C29.5666 163.965 29.1344 164.095 28.8318 164.554C28.6054 164.191 28.2486 163.972 27.747 163.972C27.3964 163.972 27.0538 164.074 26.7856 164.457V164.053H26.0712V167.323H26.7912V165.51C26.7912 164.942 27.1072 164.641 27.5952 164.641C28.0692 164.641 28.309 164.948 28.309 165.503V167.323H29.0306V165.51C29.0306 164.942 29.36 164.64 29.8338 164.64C30.3212 164.64 30.5538 164.948 30.5538 165.502V167.322L31.277 167.324Z" fill="white"/>
<path d="M63.6188 156.447V155.969H63.4938L63.3492 156.297L63.2054 155.969H63.08V156.447H63.1688V156.087L63.304 156.397H63.396L63.5312 156.086V156.447H63.6192H63.6188ZM62.8258 156.447V156.051H62.9858V155.97H62.577V156.051H62.737V156.447H62.825H62.8258Z" fill="white"/>
<path d="M49.4114 158.498H38.5942V139.133H49.4116L49.4114 158.498Z" fill="white" fill-opacity="0.7"/>
<path d="M39.28 148.816C39.28 144.888 41.1264 141.388 44.0016 139.133C41.8252 137.424 39.1334 136.496 36.3618 136.5C29.5344 136.5 24 142.014 24 148.816C24 155.618 29.5344 161.131 36.3618 161.131C39.1334 161.136 41.8254 160.208 44.0018 158.498C41.1268 156.244 39.28 152.744 39.28 148.816Z" fill="white"/>
<path d="M64.005 148.816C64.005 155.618 58.4706 161.131 51.6432 161.131C48.8713 161.136 46.179 160.208 44.0022 158.498C46.8782 156.243 48.7246 152.744 48.7246 148.816C48.7246 144.887 46.8782 141.388 44.0022 139.133C46.179 137.424 48.8711 136.496 51.643 136.5C58.4704 136.5 64.0048 142.014 64.0048 148.816" fill="white"/>
</g>
<path d="M29.552 42.16C28.24 42.16 27.1653 41.888 26.328 41.344C25.4907 40.8 25.0027 39.9787 24.864 38.88L26.896 38.808C27.04 39.3947 27.344 39.8373 27.808 40.136C28.2773 40.4293 28.856 40.576 29.544 40.576C29.9547 40.576 30.3307 40.5067 30.672 40.368C31.0133 40.2293 31.2853 40.0373 31.488 39.792C31.6907 39.5467 31.792 39.264 31.792 38.944C31.792 38.48 31.648 38.1227 31.36 37.872C31.0773 37.616 30.632 37.416 30.024 37.272L28.08 36.808C27.216 36.6107 26.5253 36.264 26.008 35.768C25.4907 35.2667 25.2267 34.5947 25.216 33.752C25.2107 33.0533 25.3947 32.4453 25.768 31.928C26.1467 31.4053 26.6667 31.0027 27.328 30.72C27.9893 30.432 28.7387 30.288 29.576 30.288C30.4133 30.288 31.136 30.4427 31.744 30.752C32.352 31.056 32.8213 31.464 33.152 31.976C33.4827 32.488 33.6507 33.0507 33.656 33.664L31.68 33.728C31.5893 33.136 31.384 32.68 31.064 32.36C30.744 32.0347 30.2533 31.872 29.592 31.872C29.272 31.872 28.9733 31.9093 28.696 31.984C28.4187 32.0587 28.176 32.168 27.968 32.312C27.76 32.456 27.5973 32.632 27.48 32.84C27.3627 33.0427 27.304 33.2747 27.304 33.536C27.304 33.9093 27.432 34.2053 27.688 34.424C27.9493 34.6373 28.424 34.8427 29.112 35.04L31 35.536C32.0187 35.7973 32.7493 36.224 33.192 36.816C33.64 37.408 33.864 38.112 33.864 38.928C33.864 39.5733 33.6853 40.1387 33.328 40.624C32.9707 41.104 32.4667 41.48 31.816 41.752C31.1707 42.024 30.416 42.16 29.552 42.16ZM28.72 28.744H30.448V30.816H28.72V28.744ZM28.656 41.52H30.376V43.592H28.656V41.52ZM40.0144 30.272C40.7824 30.272 41.4704 30.3973 42.0784 30.648C42.6864 30.8933 43.1664 31.256 43.5184 31.736C43.8757 32.2107 44.0544 32.792 44.0544 33.48C44.0544 34.0933 43.889 34.6107 43.5584 35.032C43.2277 35.448 42.809 35.768 42.3024 35.992C42.6704 36.0667 43.0277 36.2453 43.3744 36.528C43.721 36.8053 44.0064 37.1467 44.2304 37.552C44.4544 37.9573 44.5664 38.3813 44.5664 38.824C44.5664 39.5013 44.377 40.0907 43.9984 40.592C43.625 41.0933 43.0944 41.4827 42.4064 41.76C41.7237 42.032 40.9264 42.168 40.0144 42.168C39.1024 42.168 38.305 42.032 37.6224 41.76C36.945 41.4827 36.417 41.0933 36.0384 40.592C35.6597 40.0907 35.4704 39.5013 35.4704 38.824C35.4704 38.3813 35.5797 37.9573 35.7984 37.552C36.0224 37.1467 36.3077 36.8053 36.6544 36.528C37.001 36.2453 37.3584 36.0667 37.7264 35.992C37.2304 35.768 36.8144 35.448 36.4784 35.032C36.1424 34.6107 35.9744 34.0933 35.9744 33.48C35.9744 32.792 36.1504 32.2107 36.5024 31.736C36.8544 31.256 37.3344 30.8933 37.9424 30.648C38.5557 30.3973 39.2464 30.272 40.0144 30.272ZM40.0144 35.216C40.6224 35.216 41.1184 35.0613 41.5024 34.752C41.8917 34.4373 42.0864 34 42.0864 33.44C42.0864 32.8853 41.8917 32.4453 41.5024 32.12C41.113 31.7947 40.617 31.632 40.0144 31.632C39.4117 31.632 38.913 31.7947 38.5184 32.12C38.129 32.4453 37.9344 32.8853 37.9344 33.44C37.9344 34 38.129 34.4373 38.5184 34.752C38.913 35.0613 39.4117 35.216 40.0144 35.216ZM40.0144 40.664C40.777 40.664 41.3797 40.4933 41.8224 40.152C42.265 39.8107 42.4864 39.3547 42.4864 38.784C42.4864 38.4053 42.385 38.072 42.1824 37.784C41.9797 37.4907 41.6944 37.2613 41.3264 37.096C40.9584 36.9307 40.521 36.848 40.0144 36.848C39.513 36.848 39.0757 36.9307 38.7024 37.096C38.3344 37.2613 38.049 37.4907 37.8464 37.784C37.649 38.072 37.5504 38.4053 37.5504 38.784C37.5504 39.3547 37.7717 39.8107 38.2144 40.152C38.6624 40.4933 39.2624 40.664 40.0144 40.664ZM45.7433 30.432H54.1513V32.056C53.7619 32.5627 53.3753 33.1493 52.9913 33.816C52.6073 34.4773 52.2393 35.1787 51.8873 35.92C51.5353 36.656 51.2206 37.3947 50.9433 38.136C50.6659 38.872 50.4393 39.5733 50.2633 40.24C50.0873 40.9067 49.9806 41.4933 49.9433 42H47.8393C47.9033 41.504 48.0313 40.8853 48.2233 40.144C48.4206 39.3973 48.6899 38.576 49.0312 37.68C49.3726 36.7787 49.7966 35.848 50.3033 34.888C50.8099 33.928 51.4019 32.984 52.0793 32.056H45.7433V30.432ZM53.7124 44.136L54.6244 42.048L53.8644 41.992V39.952H55.9924V41.736L54.4964 44.136H53.7124ZM62.5054 30.432H69.6974L69.6254 32.056H64.0894L63.8254 35.272C64.236 34.984 64.6494 34.776 65.0654 34.648C65.4814 34.52 65.94 34.456 66.4414 34.456C67.1774 34.456 67.8467 34.6 68.4494 34.888C69.052 35.176 69.532 35.6 69.8894 36.16C70.2467 36.72 70.4254 37.4053 70.4254 38.216C70.4254 39.0267 70.244 39.728 69.8814 40.32C69.524 40.912 69.0174 41.3707 68.3614 41.696C67.7107 42.016 66.94 42.176 66.0494 42.176C65.3134 42.176 64.628 42.056 63.9934 41.816C63.364 41.5707 62.82 41.2347 62.3614 40.808C61.908 40.3813 61.5694 39.8933 61.3454 39.344L62.9214 38.512C63.1187 38.9067 63.3534 39.2613 63.6254 39.576C63.9027 39.8907 64.2254 40.1387 64.5934 40.32C64.9667 40.496 65.3934 40.584 65.8734 40.584C66.6254 40.584 67.228 40.376 67.6814 39.96C68.14 39.5387 68.3694 38.9787 68.3694 38.28C68.3694 37.848 68.2627 37.464 68.0494 37.128C67.8414 36.792 67.556 36.5307 67.1934 36.344C66.836 36.152 66.428 36.056 65.9694 36.056C65.6974 36.056 65.4414 36.08 65.2014 36.128C64.9667 36.176 64.7294 36.2667 64.4894 36.4C64.2494 36.528 63.9907 36.7227 63.7134 36.984C63.66 37.0107 63.62 37.024 63.5934 37.024C63.572 37.0187 63.532 37.0027 63.4734 36.976L61.9774 36.368L62.5054 30.432ZM76.4363 30.272C77.2043 30.272 77.8923 30.3973 78.5003 30.648C79.1083 30.8933 79.5883 31.256 79.9403 31.736C80.2976 32.2107 80.4763 32.792 80.4763 33.48C80.4763 34.0933 80.3109 34.6107 79.9803 35.032C79.6496 35.448 79.2309 35.768 78.7243 35.992C79.0923 36.0667 79.4496 36.2453 79.7963 36.528C80.1429 36.8053 80.4283 37.1467 80.6523 37.552C80.8763 37.9573 80.9883 38.3813 80.9883 38.824C80.9883 39.5013 80.7989 40.0907 80.4203 40.592C80.0469 41.0933 79.5163 41.4827 78.8283 41.76C78.1456 42.032 77.3483 42.168 76.4363 42.168C75.5243 42.168 74.7269 42.032 74.0443 41.76C73.3669 41.4827 72.8389 41.0933 72.4603 40.592C72.0816 40.0907 71.8923 39.5013 71.8923 38.824C71.8923 38.3813 72.0016 37.9573 72.2203 37.552C72.4443 37.1467 72.7296 36.8053 73.0763 36.528C73.4229 36.2453 73.7803 36.0667 74.1483 35.992C73.6523 35.768 73.2363 35.448 72.9003 35.032C72.5643 34.6107 72.3963 34.0933 72.3963 33.48C72.3963 32.792 72.5723 32.2107 72.9243 31.736C73.2763 31.256 73.7563 30.8933 74.3643 30.648C74.9776 30.3973 75.6683 30.272 76.4363 30.272ZM76.4363 35.216C77.0443 35.216 77.5403 35.0613 77.9243 34.752C78.3136 34.4373 78.5083 34 78.5083 33.44C78.5083 32.8853 78.3136 32.4453 77.9243 32.12C77.5349 31.7947 77.0389 31.632 76.4363 31.632C75.8336 31.632 75.3349 31.7947 74.9403 32.12C74.5509 32.4453 74.3563 32.8853 74.3563 33.44C74.3563 34 74.5509 34.4373 74.9403 34.752C75.3349 35.0613 75.8336 35.216 76.4363 35.216ZM76.4363 40.664C77.1989 40.664 77.8016 40.4933 78.2443 40.152C78.6869 39.8107 78.9083 39.3547 78.9083 38.784C78.9083 38.4053 78.8069 38.072 78.6043 37.784C78.4016 37.4907 78.1163 37.2613 77.7483 37.096C77.3803 36.9307 76.9429 36.848 76.4363 36.848C75.9349 36.848 75.4976 36.9307 75.1243 37.096C74.7563 37.2613 74.4709 37.4907 74.2683 37.784C74.0709 38.072 73.9723 38.4053 73.9723 38.784C73.9723 39.3547 74.1936 39.8107 74.6363 40.152C75.0843 40.4933 75.6843 40.664 76.4363 40.664ZM82.4806 33.904C82.4806 33.1147 82.67 32.4507 83.0486 31.912C83.4273 31.368 83.934 30.96 84.5686 30.688C85.2086 30.4107 85.918 30.272 86.6966 30.272C87.534 30.272 88.2753 30.3867 88.9206 30.616C89.5713 30.84 90.0806 31.1787 90.4486 31.632C90.822 32.0853 91.0086 32.648 91.0086 33.32C91.0086 33.8907 90.8353 34.4 90.4886 34.848C90.142 35.296 89.5953 35.648 88.8486 35.904C89.3126 36.032 89.7286 36.224 90.0966 36.48C90.4646 36.7307 90.7553 37.0453 90.9686 37.424C91.1873 37.8027 91.2966 38.248 91.2966 38.76C91.2966 39.3093 91.1766 39.7973 90.9366 40.224C90.702 40.6507 90.3713 41.0107 89.9446 41.304C89.5233 41.592 89.03 41.8107 88.4646 41.96C87.8993 42.104 87.2913 42.176 86.6406 42.176C85.7713 42.1707 85.022 42.0213 84.3926 41.728C83.7633 41.4347 83.2726 41.016 82.9206 40.472C82.574 39.928 82.3926 39.2827 82.3766 38.536H84.2726C84.3846 39.224 84.6566 39.736 85.0886 40.072C85.526 40.4027 86.0566 40.568 86.6806 40.568C87.198 40.568 87.646 40.4907 88.0246 40.336C88.4033 40.176 88.694 39.9573 88.8966 39.68C89.1046 39.4027 89.2086 39.08 89.2086 38.712C89.2086 38.3227 89.0966 37.9893 88.8726 37.712C88.654 37.4347 88.3526 37.2213 87.9686 37.072C87.5846 36.9227 87.1526 36.8427 86.6726 36.832L85.6006 36.8V35.216L86.5926 35.176C87.0513 35.16 87.454 35.072 87.8006 34.912C88.1526 34.752 88.4273 34.5413 88.6246 34.28C88.822 34.0187 88.9206 33.7253 88.9206 33.4C88.9206 33.1013 88.8273 32.832 88.6406 32.592C88.4593 32.352 88.2006 32.1653 87.8646 32.032C87.5286 31.8933 87.1313 31.824 86.6726 31.824C86.2833 31.824 85.918 31.8933 85.5766 32.032C85.2353 32.1707 84.9526 32.3947 84.7286 32.704C84.51 33.008 84.39 33.408 84.3686 33.904H82.4806ZM92.8633 42V39.76H95.0633V42H92.8633ZM101.064 30.272C102.386 30.272 103.432 30.7813 104.2 31.8C104.973 32.8133 105.36 34.2933 105.36 36.24C105.36 38.176 104.976 39.6507 104.208 40.664C103.445 41.672 102.394 42.176 101.056 42.176C99.717 42.176 98.6636 41.672 97.8956 40.664C97.133 39.656 96.7516 38.1867 96.7516 36.256C96.7516 34.9547 96.9276 33.8613 97.2796 32.976C97.6316 32.0853 98.1303 31.4133 98.7756 30.96C99.421 30.5013 100.184 30.272 101.064 30.272ZM101.064 40.552C101.816 40.552 102.376 40.2187 102.744 39.552C103.112 38.8853 103.296 37.784 103.296 36.248C103.296 34.68 103.109 33.5547 102.736 32.872C102.362 32.1893 101.802 31.848 101.056 31.848C100.309 31.848 99.7436 32.192 99.3596 32.88C98.981 33.568 98.7916 34.6907 98.7916 36.248C98.7916 37.7787 98.981 38.88 99.3596 39.552C99.7436 40.2187 100.312 40.552 101.064 40.552ZM111.064 30.272C112.386 30.272 113.432 30.7813 114.2 31.8C114.973 32.8133 115.36 34.2933 115.36 36.24C115.36 38.176 114.976 39.6507 114.208 40.664C113.445 41.672 112.394 42.176 111.056 42.176C109.717 42.176 108.664 41.672 107.896 40.664C107.133 39.656 106.752 38.1867 106.752 36.256C106.752 34.9547 106.928 33.8613 107.28 32.976C107.632 32.0853 108.13 31.4133 108.776 30.96C109.421 30.5013 110.184 30.272 111.064 30.272ZM111.064 40.552C111.816 40.552 112.376 40.2187 112.744 39.552C113.112 38.8853 113.296 37.784 113.296 36.248C113.296 34.68 113.109 33.5547 112.736 32.872C112.362 32.1893 111.802 31.848 111.056 31.848C110.309 31.848 109.744 32.192 109.36 32.88C108.981 33.568 108.792 34.6907 108.792 36.248C108.792 37.7787 108.981 38.88 109.36 39.552C109.744 40.2187 110.312 40.552 111.064 40.552ZM129.609 38C129.609 38.8907 129.462 39.6453 129.169 40.264C128.876 40.8827 128.417 41.3547 127.793 41.68C127.174 42 126.369 42.16 125.377 42.16C124.374 42.16 123.561 41.9947 122.937 41.664C122.318 41.3333 121.865 40.848 121.577 40.208C121.294 39.568 121.153 38.7813 121.153 37.848V30.432H122.689V38.072C122.689 39.0053 122.921 39.704 123.385 40.168C123.849 40.632 124.513 40.864 125.377 40.864C125.958 40.864 126.452 40.7627 126.857 40.56C127.268 40.3573 127.58 40.0507 127.793 39.64C128.012 39.224 128.121 38.7013 128.121 38.072V30.432H129.609V38ZM136.284 42.16C135.74 42.16 135.212 42.0933 134.7 41.96C134.188 41.8213 133.724 41.616 133.308 41.344C132.892 41.072 132.545 40.736 132.268 40.336C131.996 39.9307 131.825 39.4613 131.756 38.928H133.308C133.404 39.3653 133.593 39.7333 133.876 40.032C134.164 40.3307 134.513 40.5547 134.924 40.704C135.34 40.8533 135.791 40.928 136.276 40.928C136.82 40.928 137.305 40.8533 137.732 40.704C138.164 40.5493 138.503 40.3307 138.748 40.048C138.999 39.7653 139.124 39.4267 139.124 39.032C139.124 38.6853 139.044 38.384 138.884 38.128C138.729 37.872 138.503 37.6587 138.204 37.488C137.905 37.3173 137.543 37.184 137.116 37.088L134.844 36.56C133.991 36.3733 133.321 36.04 132.836 35.56C132.356 35.08 132.111 34.4453 132.1 33.656C132.1 32.9893 132.276 32.4027 132.628 31.896C132.985 31.3893 133.473 30.9947 134.092 30.712C134.716 30.4293 135.428 30.288 136.228 30.288C137.151 30.288 137.927 30.4453 138.556 30.76C139.185 31.0747 139.66 31.488 139.98 32C140.3 32.512 140.463 33.0587 140.468 33.64H138.94C138.892 33.1173 138.737 32.704 138.476 32.4C138.22 32.0907 137.897 31.872 137.508 31.744C137.119 31.6107 136.695 31.544 136.236 31.544C135.905 31.544 135.585 31.5867 135.276 31.672C134.972 31.752 134.697 31.8747 134.452 32.04C134.212 32.2053 134.02 32.4107 133.876 32.656C133.732 32.9013 133.66 33.1867 133.66 33.512C133.66 33.928 133.801 34.2667 134.084 34.528C134.372 34.7893 134.892 35.0133 135.644 35.2L137.844 35.728C138.42 35.8507 138.889 36.032 139.252 36.272C139.62 36.512 139.903 36.784 140.1 37.088C140.303 37.392 140.441 37.7093 140.516 38.04C140.596 38.3707 140.636 38.696 140.636 39.016C140.636 39.5973 140.463 40.128 140.116 40.608C139.769 41.0827 139.271 41.4613 138.62 41.744C137.975 42.0213 137.196 42.16 136.284 42.16ZM143.091 30.432C143.128 30.432 143.24 30.4347 143.427 30.44C143.619 30.44 143.851 30.44 144.123 30.44C144.395 30.4347 144.677 30.4347 144.971 30.44C145.264 30.44 145.533 30.4427 145.779 30.448C147.197 30.4693 148.347 30.7013 149.227 31.144C150.112 31.5813 150.76 32.2187 151.171 33.056C151.587 33.8933 151.795 34.9227 151.795 36.144C151.795 37.424 151.571 38.4987 151.123 39.368C150.68 40.2373 150.003 40.8933 149.091 41.336C148.184 41.7787 147.029 42 145.627 42H143.091V30.432ZM144.611 31.704V40.728H145.627C146.581 40.728 147.403 40.5813 148.091 40.288C148.779 39.9893 149.307 39.5067 149.675 38.84C150.048 38.1733 150.235 37.2827 150.235 36.168C150.235 35.0533 150.053 34.1707 149.691 33.52C149.333 32.8693 148.816 32.4053 148.139 32.128C147.461 31.8453 146.645 31.704 145.691 31.704H144.611Z" fill="white"/>
<path opacity="0.7" d="M28.015 75.937C28.587 75.937 29.0948 76.0543 29.5385 76.289C29.9822 76.5237 30.3378 76.839 30.6055 77.235C30.8768 77.631 31.0382 78.0692 31.0895 78.5495H29.8355C29.7805 78.2488 29.6742 77.9775 29.5165 77.7355C29.3625 77.4898 29.1572 77.2973 28.9005 77.158C28.6438 77.015 28.3395 76.9435 27.9875 76.9435C27.5365 76.9435 27.1533 77.0498 26.838 77.2625C26.5227 77.4752 26.2825 77.807 26.1175 78.258C25.9562 78.709 25.8755 79.2902 25.8755 80.0015C25.8755 81.0758 26.057 81.8623 26.42 82.361C26.783 82.856 27.3055 83.1035 27.9875 83.1035C28.3395 83.1035 28.6438 83.0283 28.9005 82.878C29.1572 82.724 29.3625 82.5205 29.5165 82.2675C29.6742 82.0108 29.7805 81.7322 29.8355 81.4315H31.0895C31.0455 81.7798 30.9538 82.1153 30.8145 82.438C30.6752 82.757 30.4808 83.043 30.2315 83.296C29.9858 83.549 29.6797 83.7488 29.313 83.8955C28.9463 84.0385 28.5137 84.11 28.015 84.11C27.2963 84.11 26.6803 83.945 26.167 83.615C25.6537 83.2813 25.2595 82.8083 24.9845 82.196C24.7132 81.58 24.5775 80.843 24.5775 79.985C24.5775 79.1307 24.7132 78.4028 24.9845 77.8015C25.2558 77.1965 25.6482 76.7345 26.1615 76.4155C26.6748 76.0965 27.2927 75.937 28.015 75.937ZM31.8998 84L34.7708 76.047H36.0688L38.9343 84H37.7463L36.9983 81.9155H33.8578L33.0933 84H31.8998ZM34.1383 80.8485H36.6958L35.4253 77.202L34.1383 80.8485ZM46.1761 84H44.9386L43.5306 80.6725H41.5341V84H40.3571V76.047H43.5141C44.1044 76.047 44.5939 76.1387 44.9826 76.322C45.3713 76.5017 45.6609 76.7583 45.8516 77.092C46.0423 77.4257 46.1376 77.8198 46.1376 78.2745C46.1376 78.7035 46.0643 79.061 45.9176 79.347C45.7746 79.633 45.5876 79.8658 45.3566 80.0455C45.1293 80.2252 44.8891 80.3663 44.6361 80.469L46.1761 84ZM43.1951 79.721C43.7488 79.721 44.1778 79.6018 44.4821 79.3635C44.7864 79.1215 44.9386 78.7768 44.9386 78.3295C44.9386 77.8895 44.7993 77.5558 44.5206 77.3285C44.2456 77.1012 43.8716 76.9875 43.3986 76.9875H41.5341V79.721H43.1951ZM47.8551 76.047C47.8845 76.047 47.9706 76.0488 48.1136 76.0525C48.2603 76.0525 48.4363 76.0525 48.6416 76.0525C48.847 76.0488 49.056 76.0488 49.2686 76.0525C49.485 76.0525 49.6775 76.0543 49.8461 76.058C50.8178 76.0727 51.608 76.234 52.2166 76.542C52.8253 76.85 53.2708 77.2937 53.5531 77.873C53.8391 78.4487 53.9821 79.1508 53.9821 79.9795C53.9821 80.8412 53.83 81.5727 53.5256 82.174C53.2213 82.7717 52.7556 83.2263 52.1286 83.538C51.5053 83.846 50.7151 84 49.7581 84H47.8551V76.047ZM49.0541 77.037V83.01H49.7691C50.3705 83.01 50.893 82.9128 51.3366 82.7185C51.784 82.5205 52.1305 82.2015 52.3761 81.7615C52.6218 81.3178 52.7446 80.7257 52.7446 79.985C52.7446 79.259 52.6273 78.6815 52.3926 78.2525C52.158 77.8198 51.8206 77.51 51.3806 77.323C50.9443 77.1323 50.4181 77.037 49.8021 77.037H49.0541ZM63.2252 76.047H64.4077V84H63.3517L59.2157 77.9445V84H58.0387V76.047H59.1772L63.2252 81.976V76.047ZM72.3099 81.173C72.3099 81.7927 72.2073 82.3225 72.0019 82.7625C71.7966 83.1988 71.4739 83.5325 71.0339 83.7635C70.5976 83.9945 70.0274 84.11 69.3234 84.11C68.6121 84.11 68.0364 83.9927 67.5964 83.758C67.1601 83.5233 66.8411 83.1805 66.6394 82.7295C66.4414 82.2785 66.3424 81.7285 66.3424 81.0795V76.047H67.5579V81.228C67.5579 81.8587 67.7119 82.328 68.0199 82.636C68.3316 82.9403 68.7661 83.0925 69.3234 83.0925C69.6938 83.0925 70.0128 83.0265 70.2804 82.8945C70.5518 82.7588 70.7589 82.5535 70.9019 82.2785C71.0449 81.9998 71.1164 81.6497 71.1164 81.228V76.047H72.3099V81.173ZM74.1198 84V76.047H75.7808L78.0193 82.372L80.2908 76.047H81.9408V84H80.7363V77.664L78.5363 84H77.5078L75.3188 77.7135V84H74.1198ZM83.9489 84V76.047H86.5944C87.5807 76.047 88.3232 76.2248 88.8219 76.5805C89.3242 76.9362 89.5754 77.4495 89.5754 78.1205C89.5754 78.5348 89.4672 78.8923 89.2509 79.193C89.0382 79.49 88.6642 79.7393 88.1289 79.941C88.4442 80.0107 88.7082 80.1115 88.9209 80.2435C89.1335 80.3718 89.3004 80.5203 89.4214 80.689C89.546 80.8577 89.634 81.041 89.6854 81.239C89.7404 81.437 89.7679 81.6423 89.7679 81.855C89.7679 82.5773 89.513 83.1163 89.0034 83.472C88.4974 83.824 87.7255 84 86.6879 84H83.9489ZM85.1259 83.043H86.6934C87.3094 83.043 87.7769 82.9385 88.0959 82.7295C88.4149 82.5168 88.5744 82.1997 88.5744 81.778C88.5744 81.4737 88.4955 81.2243 88.3379 81.03C88.1802 80.8357 87.9675 80.6927 87.6999 80.601C87.4322 80.5093 87.1334 80.4635 86.8034 80.4635H85.1259V83.043ZM85.1259 79.49H86.8034C87.0014 79.49 87.1957 79.4698 87.3864 79.4295C87.577 79.3892 87.7512 79.3232 87.9089 79.2315C88.0665 79.1362 88.193 79.0097 88.2884 78.852C88.3837 78.6943 88.4314 78.5018 88.4314 78.2745C88.4314 77.8418 88.2682 77.521 87.9419 77.312C87.6155 77.103 87.192 76.9985 86.6714 76.9985H85.1259V79.49ZM91.4577 84V76.047H96.5947L96.5892 77.07H92.6402V79.4845H96.1657V80.491H92.6347V82.9605L96.6882 82.966V84H91.4577ZM104.259 84H103.022L101.614 80.6725H99.6171V84H98.4401V76.047H101.597C102.187 76.047 102.677 76.1387 103.066 76.322C103.454 76.5017 103.744 76.7583 103.935 77.092C104.125 77.4257 104.221 77.8198 104.221 78.2745C104.221 78.7035 104.147 79.061 104.001 79.347C103.858 79.633 103.671 79.8658 103.44 80.0455C103.212 80.2252 102.972 80.3663 102.719 80.469L104.259 84ZM101.278 79.721C101.832 79.721 102.261 79.6018 102.565 79.3635C102.869 79.1215 103.022 78.7768 103.022 78.3295C103.022 77.8895 102.882 77.5558 102.604 77.3285C102.329 77.1012 101.955 76.9875 101.482 76.9875H99.6171V79.721H101.278Z" fill="white"/>
<path d="M29.54 109.29L27.98 106.76L26.37 109.35L25.27 108.6L27.16 106.25L24.53 105.51L24.95 104.34L27.46 105.35L27.28 102.54H28.64L28.46 105.36L31 104.26L31.38 105.43L28.81 106.24L30.65 108.5L29.54 109.29ZM37.4111 109.29L35.8511 106.76L34.2411 109.35L33.1411 108.6L35.0311 106.25L32.4011 105.51L32.8211 104.34L35.3311 105.35L35.1511 102.54H36.5111L36.3311 105.36L38.8711 104.26L39.2511 105.43L36.6811 106.24L38.5211 108.5L37.4111 109.29ZM45.2822 109.29L43.7222 106.76L42.1122 109.35L41.0122 108.6L42.9022 106.25L40.2722 105.51L40.6922 104.34L43.2022 105.35L43.0222 102.54H44.3822L44.2022 105.36L46.7422 104.26L47.1222 105.43L44.5522 106.24L46.3922 108.5L45.2822 109.29ZM53.1533 109.29L51.5933 106.76L49.9833 109.35L48.8833 108.6L50.7733 106.25L48.1433 105.51L48.5633 104.34L51.0733 105.35L50.8933 102.54H52.2533L52.0733 105.36L54.6133 104.26L54.9933 105.43L52.4233 106.24L54.2633 108.5L53.1533 109.29ZM70.2431 109.29L68.6831 106.76L67.0731 109.35L65.9731 108.6L67.8631 106.25L65.2331 105.51L65.6531 104.34L68.1631 105.35L67.9831 102.54H69.3431L69.1631 105.36L71.7031 104.26L72.0831 105.43L69.5131 106.24L71.3531 108.5L70.2431 109.29ZM78.1142 109.29L76.5542 106.76L74.9442 109.35L73.8442 108.6L75.7342 106.25L73.1042 105.51L73.5242 104.34L76.0342 105.35L75.8542 102.54H77.2142L77.0342 105.36L79.5742 104.26L79.9542 105.43L77.3842 106.24L79.2242 108.5L78.1142 109.29ZM85.9853 109.29L84.4253 106.76L82.8153 109.35L81.7153 108.6L83.6053 106.25L80.9753 105.51L81.3953 104.34L83.9053 105.35L83.7253 102.54H85.0853L84.9053 105.36L87.4453 104.26L87.8253 105.43L85.2553 106.24L87.0953 108.5L85.9853 109.29ZM93.8564 109.29L92.2964 106.76L90.6864 109.35L89.5864 108.6L91.4764 106.25L88.8464 105.51L89.2664 104.34L91.7764 105.35L91.5964 102.54H92.9564L92.7764 105.36L95.3164 104.26L95.6964 105.43L93.1264 106.24L94.9664 108.5L93.8564 109.29ZM110.946 109.29L109.386 106.76L107.776 109.35L106.676 108.6L108.566 106.25L105.936 105.51L106.356 104.34L108.866 105.35L108.686 102.54H110.046L109.866 105.36L112.406 104.26L112.786 105.43L110.216 106.24L112.056 108.5L110.946 109.29ZM118.817 109.29L117.257 106.76L115.647 109.35L114.547 108.6L116.437 106.25L113.807 105.51L114.227 104.34L116.737 105.35L116.557 102.54H117.917L117.737 105.36L120.277 104.26L120.657 105.43L118.087 106.24L119.927 108.5L118.817 109.29ZM126.688 109.29L125.128 106.76L123.518 109.35L122.418 108.6L124.308 106.25L121.678 105.51L122.098 104.34L124.608 105.35L124.428 102.54H125.788L125.608 105.36L128.148 104.26L128.528 105.43L125.958 106.24L127.798 108.5L126.688 109.29ZM134.56 109.29L133 106.76L131.39 109.35L130.29 108.6L132.18 106.25L129.55 105.51L129.97 104.34L132.48 105.35L132.3 102.54H133.66L133.48 105.36L136.02 104.26L136.4 105.43L133.83 106.24L135.67 108.5L134.56 109.29ZM149.829 117V105.49H147.039V104.28C147.906 104.28 148.579 104.217 149.059 104.09C149.539 103.963 149.879 103.77 150.079 103.51C150.286 103.25 150.399 102.927 150.419 102.54H151.739V117H149.829ZM155.184 102.54H165.334V104.14C164.821 104.84 164.311 105.637 163.804 106.53C163.304 107.417 162.827 108.347 162.374 109.32C161.921 110.287 161.514 111.243 161.154 112.19C160.794 113.13 160.494 114.017 160.254 114.85C160.021 115.677 159.871 116.393 159.804 117H157.794C157.901 116.34 158.091 115.523 158.364 114.55C158.644 113.577 159.011 112.513 159.464 111.36C159.917 110.2 160.464 109.003 161.104 107.77C161.744 106.537 162.477 105.327 163.304 104.14H155.184V102.54ZM172.495 102.34C173.295 102.34 174.032 102.49 174.705 102.79C175.385 103.09 175.948 103.52 176.395 104.08C176.842 104.64 177.118 105.317 177.225 106.11H175.485C175.292 105.423 174.942 104.88 174.435 104.48C173.928 104.08 173.292 103.88 172.525 103.88C171.672 103.88 170.958 104.123 170.385 104.61C169.818 105.09 169.405 105.797 169.145 106.73C168.885 107.657 168.795 108.797 168.875 110.15C169.055 109.663 169.328 109.237 169.695 108.87C170.068 108.497 170.502 108.21 170.995 108.01C171.488 107.803 172.022 107.7 172.595 107.7C173.548 107.7 174.382 107.887 175.095 108.26C175.808 108.627 176.365 109.153 176.765 109.84C177.165 110.52 177.365 111.333 177.365 112.28C177.365 113.247 177.158 114.103 176.745 114.85C176.338 115.59 175.758 116.17 175.005 116.59C174.252 117.01 173.362 117.22 172.335 117.22C171.215 117.22 170.242 116.93 169.415 116.35C168.595 115.77 167.958 114.943 167.505 113.87C167.058 112.79 166.835 111.497 166.835 109.99C166.835 108.443 167.052 107.097 167.485 105.95C167.925 104.803 168.565 103.917 169.405 103.29C170.245 102.657 171.275 102.34 172.495 102.34ZM172.295 109.2C171.768 109.2 171.262 109.327 170.775 109.58C170.295 109.827 169.902 110.153 169.595 110.56C169.295 110.967 169.145 111.417 169.145 111.91C169.138 112.643 169.265 113.297 169.525 113.87C169.792 114.437 170.165 114.883 170.645 115.21C171.125 115.53 171.682 115.69 172.315 115.69C172.908 115.69 173.435 115.55 173.895 115.27C174.355 114.99 174.715 114.6 174.975 114.1C175.242 113.6 175.375 113.023 175.375 112.37C175.375 111.71 175.255 111.143 175.015 110.67C174.782 110.197 174.435 109.833 173.975 109.58C173.515 109.327 172.955 109.2 172.295 109.2ZM182.036 117V105.49H179.246V104.28C180.113 104.28 180.786 104.217 181.266 104.09C181.746 103.963 182.086 103.77 182.286 103.51C182.493 103.25 182.606 102.927 182.626 102.54H183.946V117H182.036Z" fill="white"/>
<g opacity="0.5">
<path d="M206.125 113.125H209.875V103.125H199.875V106.875" stroke="white" stroke-width="1.5" stroke-linecap="round" stroke-linejoin="round"/>
<path d="M206.125 106.875H196.125V116.875H206.125V106.875Z" stroke="white" stroke-width="1.5" stroke-linecap="round" stroke-linejoin="round"/>
</g>
<path d="M193.219 157H191.553L188.522 151.932L186.842 153.885V157H185.281V146.878H186.842V151.953L191.147 146.878H192.911L189.607 150.84L193.219 157ZM195.419 153.731C195.419 154.165 195.489 154.555 195.629 154.9C195.773 155.241 195.99 155.511 196.28 155.712C196.569 155.908 196.928 156.006 197.358 156.006C197.787 156.006 198.158 155.908 198.471 155.712C198.788 155.516 198.996 155.224 199.094 154.837H200.48C200.396 155.332 200.197 155.752 199.885 156.097C199.577 156.442 199.203 156.704 198.765 156.881C198.326 157.054 197.866 157.14 197.386 157.14C196.7 157.14 196.095 156.993 195.573 156.699C195.05 156.4 194.642 155.976 194.348 155.425C194.058 154.874 193.914 154.219 193.914 153.458C193.914 152.707 194.047 152.044 194.313 151.47C194.579 150.891 194.964 150.439 195.468 150.112C195.972 149.785 196.578 149.622 197.288 149.622C197.988 149.622 198.576 149.771 199.052 150.07C199.532 150.369 199.896 150.789 200.144 151.33C200.391 151.867 200.515 152.501 200.515 153.234V153.731H195.419ZM195.419 152.758H199.087C199.087 152.38 199.021 152.037 198.891 151.729C198.76 151.416 198.559 151.171 198.289 150.994C198.023 150.812 197.687 150.721 197.281 150.721C196.865 150.721 196.52 150.821 196.245 151.022C195.969 151.223 195.762 151.479 195.622 151.792C195.486 152.105 195.419 152.427 195.419 152.758ZM207.764 149.762L205.132 157H203.865L201.226 149.762H202.612L204.446 155.103H204.544L206.378 149.762H207.764ZM210.646 149.762V157H209.204V149.762H210.646ZM210.674 146.885V148.362H209.169V146.885H210.674ZM212.878 157V149.762H214.341V150.805C214.458 150.609 214.614 150.425 214.81 150.252C215.011 150.079 215.256 149.939 215.545 149.832C215.839 149.725 216.178 149.671 216.56 149.671C217.013 149.671 217.431 149.762 217.813 149.944C218.201 150.121 218.511 150.401 218.744 150.784C218.978 151.162 219.094 151.652 219.094 152.254V157H217.596V152.415C217.596 151.897 217.456 151.512 217.176 151.26C216.901 151.008 216.544 150.882 216.105 150.882C215.811 150.882 215.531 150.931 215.265 151.029C214.999 151.127 214.785 151.276 214.621 151.477C214.458 151.673 214.376 151.92 214.376 152.219V157H212.878ZM228.259 157.14C227.359 157.14 226.582 156.935 225.928 156.524C225.275 156.113 224.771 155.523 224.416 154.753C224.066 153.978 223.891 153.05 223.891 151.967C223.891 150.875 224.071 149.939 224.43 149.16C224.794 148.376 225.31 147.776 225.977 147.361C226.645 146.946 227.429 146.738 228.329 146.738C228.866 146.738 229.363 146.829 229.82 147.011C230.282 147.193 230.688 147.44 231.038 147.753C231.393 148.066 231.673 148.42 231.878 148.817C232.084 149.214 232.2 149.629 232.228 150.063H230.632C230.567 149.704 230.427 149.372 230.212 149.069C230.002 148.761 229.734 148.514 229.407 148.327C229.081 148.14 228.712 148.047 228.301 148.047C227.755 148.047 227.272 148.182 226.852 148.453C226.432 148.724 226.103 149.146 225.865 149.72C225.632 150.289 225.515 151.027 225.515 151.932C225.515 152.637 225.588 153.236 225.732 153.731C225.882 154.226 226.085 154.625 226.341 154.928C226.598 155.231 226.899 155.453 227.244 155.593C227.59 155.728 227.958 155.796 228.35 155.796C228.738 155.796 229.078 155.728 229.372 155.593C229.666 155.458 229.911 155.283 230.107 155.068C230.308 154.853 230.462 154.622 230.569 154.375C230.681 154.123 230.747 153.88 230.765 153.647L230.814 152.828H228.448V151.75L232.375 151.764V157H231.29V155.516C231.113 155.791 230.891 156.053 230.625 156.3C230.359 156.547 230.033 156.75 229.645 156.909C229.258 157.063 228.796 157.14 228.259 157.14ZM236.117 149.762V157H234.675V149.762H236.117ZM236.145 146.885V148.362H234.64V146.885H236.145ZM240.309 157.098C239.88 157.098 239.534 157.042 239.273 156.93C239.016 156.818 238.82 156.669 238.685 156.482C238.55 156.291 238.459 156.076 238.412 155.838C238.37 155.595 238.349 155.346 238.349 155.089V146.598H239.826V154.935C239.826 155.271 239.891 155.528 240.022 155.705C240.157 155.882 240.363 155.983 240.638 156.006L241.016 156.02V156.972C240.899 157.009 240.778 157.04 240.652 157.063C240.531 157.086 240.416 157.098 240.309 157.098ZM246.29 157.14C245.884 157.14 245.539 157.086 245.254 156.979C244.97 156.872 244.734 156.734 244.547 156.566C244.365 156.398 244.221 156.221 244.113 156.034C244.011 155.847 243.931 155.675 243.875 155.516L243.714 157H242.587V146.598H244.099V150.861C244.165 150.735 244.26 150.6 244.386 150.455C244.517 150.31 244.678 150.175 244.869 150.049C245.065 149.923 245.292 149.82 245.548 149.741C245.805 149.662 246.094 149.622 246.416 149.622C247.317 149.622 248.031 149.939 248.558 150.574C249.09 151.209 249.356 152.133 249.356 153.346C249.356 154.111 249.242 154.779 249.013 155.348C248.785 155.913 248.442 156.354 247.984 156.671C247.532 156.984 246.967 157.14 246.29 157.14ZM245.996 156.013C246.547 156.013 246.995 155.798 247.34 155.369C247.69 154.94 247.865 154.249 247.865 153.297C247.865 152.476 247.702 151.848 247.375 151.414C247.053 150.98 246.587 150.763 245.975 150.763C245.537 150.763 245.18 150.861 244.904 151.057C244.629 151.248 244.426 151.533 244.295 151.911C244.169 152.289 244.104 152.751 244.099 153.297C244.099 154.263 244.249 154.958 244.547 155.383C244.846 155.803 245.329 156.013 245.996 156.013ZM252.088 153.731C252.088 154.165 252.158 154.555 252.298 154.9C252.443 155.241 252.66 155.511 252.949 155.712C253.239 155.908 253.598 156.006 254.027 156.006C254.457 156.006 254.828 155.908 255.14 155.712C255.458 155.516 255.665 155.224 255.763 154.837H257.149C257.065 155.332 256.867 155.752 256.554 156.097C256.246 156.442 255.873 156.704 255.434 156.881C254.996 157.054 254.536 157.14 254.055 157.14C253.369 157.14 252.765 156.993 252.242 156.699C251.72 156.4 251.311 155.976 251.017 155.425C250.728 154.874 250.583 154.219 250.583 153.458C250.583 152.707 250.716 152.044 250.982 151.47C251.248 150.891 251.633 150.439 252.137 150.112C252.641 149.785 253.248 149.622 253.957 149.622C254.657 149.622 255.245 149.771 255.721 150.07C256.202 150.369 256.566 150.789 256.813 151.33C257.061 151.867 257.184 152.501 257.184 153.234V153.731H252.088ZM252.088 152.758H255.756C255.756 152.38 255.691 152.037 255.56 151.729C255.43 151.416 255.229 151.171 254.958 150.994C254.692 150.812 254.356 150.721 253.95 150.721C253.535 150.721 253.19 150.821 252.914 151.022C252.639 151.223 252.431 151.479 252.291 151.792C252.156 152.105 252.088 152.427 252.088 152.758ZM258.857 157V149.762H260.292V151.246C260.413 150.891 260.581 150.595 260.796 150.357C261.015 150.114 261.269 149.932 261.559 149.811C261.848 149.685 262.154 149.622 262.476 149.622C262.574 149.622 262.667 149.629 262.756 149.643C262.844 149.652 262.914 149.671 262.966 149.699V151.141C262.905 151.113 262.826 151.094 262.728 151.085C262.634 151.076 262.553 151.069 262.483 151.064C262.165 151.041 261.876 151.057 261.615 151.113C261.353 151.169 261.127 151.262 260.936 151.393C260.749 151.524 260.604 151.694 260.502 151.904C260.404 152.114 260.355 152.361 260.355 152.646V157H258.857ZM268.397 150.84H266.773L266.78 155.159C266.78 155.397 266.803 155.572 266.85 155.684C266.901 155.791 266.985 155.861 267.102 155.894C267.223 155.922 267.386 155.936 267.592 155.936H268.439V156.909C268.345 156.946 268.205 156.979 268.019 157.007C267.837 157.035 267.601 157.049 267.312 157.049C266.775 157.049 266.357 156.977 266.059 156.832C265.765 156.687 265.559 156.48 265.443 156.209C265.331 155.934 265.275 155.602 265.275 155.215V150.84H264.099V149.762H265.317L265.688 147.634H266.773V149.755H268.397V150.84Z" fill="white"/>
<defs>
<radialGradient id="paint0_radial_927_24322" cx="0" cy="0" r="1" gradientUnits="userSpaceOnUse" gradientTransform="rotate(33.4056) scale(347.99 511.033)">
<stop stop-color="#248E1D"/>
<stop offset="1" stop-color="#2DB324"/>
</radialGradient>
<clipPath id="clip0_927_24322">
<rect width="40" height="40" fill="white" transform="translate(24 132)"/>
</clipPath>
</defs>
</svg>
