<svg width="32" height="33" viewBox="0 0 32 33" fill="none" xmlns="http://www.w3.org/2000/svg">
<g clip-path="url(#clip0_210_13931)">
<path d="M29.0563 25.438C28.5896 26.5249 28.0133 27.5614 27.3363 28.5313C26.431 29.8213 25.6903 30.714 25.1197 31.21C24.235 32.0233 23.2863 32.4407 22.271 32.464C21.5423 32.464 20.6637 32.2567 19.6403 31.836C18.6137 31.4173 17.6703 31.2093 16.8077 31.2093C15.903 31.2093 14.933 31.4173 13.895 31.836C12.8557 32.2567 12.0183 32.476 11.3783 32.4973C10.405 32.5393 9.43433 32.1107 8.46499 31.21C7.84699 30.67 7.07433 29.746 6.14766 28.4367C5.15366 27.038 4.33633 25.4167 3.69633 23.5673C3.01099 21.5707 2.66699 19.6367 2.66699 17.7647C2.66699 15.62 3.13033 13.7707 4.05833 12.2207C4.78833 10.9753 5.75833 9.994 6.97299 9.27267C8.16465 8.55956 9.52435 8.17581 10.913 8.16067C11.6863 8.16067 12.7003 8.4 13.961 8.87C15.2177 9.34133 16.0243 9.58067 16.3783 9.58067C16.6423 9.58067 17.539 9.30067 19.0583 8.74333C20.4957 8.226 21.7083 8.012 22.7017 8.09667C25.3943 8.314 27.417 9.37533 28.7617 11.2873C26.3543 12.746 25.163 14.7893 25.187 17.4107C25.2083 19.4527 25.949 21.152 27.405 22.5007C28.065 23.1273 28.8017 23.6113 29.621 23.9547C29.4492 24.4552 29.2609 24.9499 29.0563 25.438ZM22.8817 1.14067C22.8817 2.74067 22.297 4.23533 21.1317 5.618C19.725 7.26267 18.0243 8.21267 16.1797 8.06267C16.1549 7.86139 16.1424 7.65879 16.1423 7.456C16.1423 5.92 16.811 4.276 17.999 2.93133C18.5923 2.25067 19.3457 1.68467 20.2603 1.23333C21.1737 0.788667 22.0363 0.542667 22.8483 0.5C22.8717 0.714 22.8817 0.928 22.8817 1.14V1.14067Z" fill="white"/>
</g>
<defs>
<clipPath id="clip0_210_13931">
<rect width="32" height="32" fill="white" transform="translate(0 0.5)"/>
</clipPath>
</defs>
</svg>
