<svg width="80" height="16" viewBox="0 0 80 16" fill="none" xmlns="http://www.w3.org/2000/svg">
<path d="M8.27549 11.9188L11.4255 13.9188C11.8317 14.175 12.3317 13.7938 12.213 13.325L11.3005 9.73752C11.2758 9.63807 11.2797 9.53369 11.3118 9.43638C11.3439 9.33907 11.4028 9.2528 11.4817 9.18752L14.3067 6.83127C14.6755 6.52502 14.488 5.90627 14.0067 5.87502L10.3192 5.63752C10.2186 5.63166 10.1219 5.59663 10.0409 5.53669C9.95984 5.47675 9.89803 5.39451 9.86299 5.30002L8.48799 1.83752C8.45159 1.73745 8.38528 1.65102 8.29807 1.58994C8.21086 1.52886 8.10696 1.49609 8.00049 1.49609C7.89401 1.49609 7.79012 1.52886 7.7029 1.58994C7.61569 1.65102 7.54938 1.73745 7.51299 1.83752L6.13799 5.30002C6.10294 5.39451 6.04113 5.47675 5.96011 5.53669C5.87908 5.59663 5.78235 5.63166 5.68174 5.63752L1.99424 5.87502C1.51299 5.90627 1.32549 6.52502 1.69424 6.83127L4.51924 9.18752C4.5982 9.2528 4.6571 9.33907 4.68917 9.43638C4.72124 9.53369 4.72516 9.63807 4.70049 9.73752L3.85674 13.0625C3.71299 13.625 4.31299 14.0813 4.79424 13.775L7.72549 11.9188C7.80768 11.8665 7.90308 11.8387 8.00049 11.8387C8.0979 11.8387 8.19329 11.8665 8.27549 11.9188Z" fill="#FA8232"/>
<path d="M24.2755 11.9188L27.4255 13.9188C27.8317 14.175 28.3317 13.7938 28.213 13.325L27.3005 9.73752C27.2758 9.63807 27.2797 9.53369 27.3118 9.43638C27.3439 9.33907 27.4028 9.2528 27.4817 9.18752L30.3067 6.83127C30.6755 6.52502 30.488 5.90627 30.0067 5.87502L26.3192 5.63752C26.2186 5.63166 26.1219 5.59663 26.0409 5.53669C25.9598 5.47675 25.898 5.39451 25.863 5.30002L24.488 1.83752C24.4516 1.73745 24.3853 1.65102 24.2981 1.58994C24.2109 1.52886 24.107 1.49609 24.0005 1.49609C23.894 1.49609 23.7901 1.52886 23.7029 1.58994C23.6157 1.65102 23.5494 1.73745 23.513 1.83752L22.138 5.30002C22.1029 5.39451 22.0411 5.47675 21.9601 5.53669C21.8791 5.59663 21.7824 5.63166 21.6817 5.63752L17.9942 5.87502C17.513 5.90627 17.3255 6.52502 17.6942 6.83127L20.5192 9.18752C20.5982 9.2528 20.6571 9.33907 20.6892 9.43638C20.7212 9.53369 20.7252 9.63807 20.7005 9.73752L19.8567 13.0625C19.713 13.625 20.313 14.0813 20.7942 13.775L23.7255 11.9188C23.8077 11.8665 23.9031 11.8387 24.0005 11.8387C24.0979 11.8387 24.1933 11.8665 24.2755 11.9188Z" fill="#FA8232"/>
<path d="M40.2755 11.9188L43.4255 13.9188C43.8317 14.175 44.3317 13.7938 44.213 13.325L43.3005 9.73752C43.2758 9.63807 43.2797 9.53369 43.3118 9.43638C43.3439 9.33907 43.4028 9.2528 43.4817 9.18752L46.3067 6.83127C46.6755 6.52502 46.488 5.90627 46.0067 5.87502L42.3192 5.63752C42.2186 5.63166 42.1219 5.59663 42.0409 5.53669C41.9598 5.47675 41.898 5.39451 41.863 5.30002L40.488 1.83752C40.4516 1.73745 40.3853 1.65102 40.2981 1.58994C40.2109 1.52886 40.107 1.49609 40.0005 1.49609C39.894 1.49609 39.7901 1.52886 39.7029 1.58994C39.6157 1.65102 39.5494 1.73745 39.513 1.83752L38.138 5.30002C38.1029 5.39451 38.0411 5.47675 37.9601 5.53669C37.8791 5.59663 37.7824 5.63166 37.6817 5.63752L33.9942 5.87502C33.513 5.90627 33.3255 6.52502 33.6942 6.83127L36.5192 9.18752C36.5982 9.2528 36.6571 9.33907 36.6892 9.43638C36.7212 9.53369 36.7252 9.63807 36.7005 9.73752L35.8567 13.0625C35.713 13.625 36.313 14.0813 36.7942 13.775L39.7255 11.9188C39.8077 11.8665 39.9031 11.8387 40.0005 11.8387C40.0979 11.8387 40.1933 11.8665 40.2755 11.9188Z" fill="#FA8232"/>
<path d="M56.2755 11.9188L59.4255 13.9188C59.8317 14.175 60.3317 13.7938 60.213 13.325L59.3005 9.73752C59.2758 9.63807 59.2797 9.53369 59.3118 9.43638C59.3439 9.33907 59.4028 9.2528 59.4817 9.18752L62.3067 6.83127C62.6755 6.52502 62.488 5.90627 62.0067 5.87502L58.3192 5.63752C58.2186 5.63166 58.1219 5.59663 58.0409 5.53669C57.9598 5.47675 57.898 5.39451 57.863 5.30002L56.488 1.83752C56.4516 1.73745 56.3853 1.65102 56.2981 1.58994C56.2109 1.52886 56.107 1.49609 56.0005 1.49609C55.894 1.49609 55.7901 1.52886 55.7029 1.58994C55.6157 1.65102 55.5494 1.73745 55.513 1.83752L54.138 5.30002C54.1029 5.39451 54.0411 5.47675 53.9601 5.53669C53.8791 5.59663 53.7824 5.63166 53.6817 5.63752L49.9942 5.87502C49.513 5.90627 49.3255 6.52502 49.6942 6.83127L52.5192 9.18752C52.5982 9.2528 52.6571 9.33907 52.6892 9.43638C52.7212 9.53369 52.7252 9.63807 52.7005 9.73752L51.8567 13.0625C51.713 13.625 52.313 14.0813 52.7942 13.775L55.7255 11.9188C55.8077 11.8665 55.9031 11.8387 56.0005 11.8387C56.0979 11.8387 56.1933 11.8665 56.2755 11.9188Z" fill="#FA8232"/>
<path d="M72.2755 11.9188L75.4255 13.9188C75.8317 14.175 76.3317 13.7938 76.213 13.325L75.3005 9.73752C75.2758 9.63807 75.2797 9.53369 75.3118 9.43638C75.3439 9.33907 75.4028 9.2528 75.4817 9.18752L78.3067 6.83127C78.6755 6.52502 78.488 5.90627 78.0067 5.87502L74.3192 5.63752C74.2186 5.63166 74.1219 5.59663 74.0409 5.53669C73.9598 5.47675 73.898 5.39451 73.863 5.30002L72.488 1.83752C72.4516 1.73745 72.3853 1.65102 72.2981 1.58994C72.2109 1.52886 72.107 1.49609 72.0005 1.49609C71.894 1.49609 71.7901 1.52886 71.7029 1.58994C71.6157 1.65102 71.5494 1.73745 71.513 1.83752L70.138 5.30002C70.1029 5.39451 70.0411 5.47675 69.9601 5.53669C69.8791 5.59663 69.7824 5.63166 69.6817 5.63752L65.9942 5.87502C65.513 5.90627 65.3255 6.52502 65.6942 6.83127L68.5192 9.18752C68.5982 9.2528 68.6571 9.33907 68.6892 9.43638C68.7212 9.53369 68.7252 9.63807 68.7005 9.73752L67.8567 13.0625C67.713 13.625 68.313 14.0813 68.7942 13.775L71.7255 11.9188C71.8077 11.8665 71.9031 11.8387 72.0005 11.8387C72.0979 11.8387 72.1933 11.8665 72.2755 11.9188Z" fill="#FA8232"/>
</svg>
