<svg width="20" height="20" viewBox="0 0 20 20" fill="none" xmlns="http://www.w3.org/2000/svg">
<path d="M15.6318 10.534C15.6229 8.90075 16.3619 7.668 17.8577 6.76012C17.0208 5.56297 15.7564 4.90432 14.087 4.77525C12.5065 4.65064 10.7792 5.69648 10.147 5.69648C9.47922 5.69648 7.94776 4.81976 6.74574 4.81976C4.26157 4.85981 1.62158 6.80018 1.62158 10.7477C1.62158 11.9137 1.83527 13.1182 2.26266 14.3614C2.8325 15.9947 4.88929 20 7.03512 19.9332C8.157 19.9065 8.94944 19.1366 10.4097 19.1366C11.8254 19.1366 12.5599 19.9332 13.8109 19.9332C15.9746 19.9021 17.8355 16.2617 18.3786 14.6239C15.476 13.2577 15.6318 10.6186 15.6318 10.534ZM13.112 3.22652C14.3274 1.7846 14.2161 0.47174 14.1804 0C13.1075 0.0623053 11.8654 0.729862 11.1576 1.55318C10.3785 2.43436 9.91996 3.5247 10.0179 4.753C11.1799 4.84201 12.2394 4.24566 13.112 3.22652Z" fill="black"/>
</svg>
