<svg width="72" height="72" viewBox="0 0 72 72" fill="none" xmlns="http://www.w3.org/2000/svg">
<g clip-path="url(#clip0_217_13991)">
<path d="M8.86747 24.2632H9.50774C11.7306 24.3115 13.9171 25.2046 15.4876 26.7856C14.9077 27.377 14.3158 27.9442 13.748 28.5356C12.8661 27.739 11.803 27.1235 10.6433 26.9063C8.92787 26.5442 7.07955 26.8701 5.64196 27.8477C4.07149 28.8735 3.00841 30.6115 2.77888 32.4701C2.52518 34.3046 3.04465 36.2356 4.24062 37.6597C5.38827 39.0477 7.13995 39.9166 8.95203 39.977C10.6433 40.0735 12.4071 39.5545 13.6393 38.3718C14.6057 37.539 15.0527 36.2718 15.1977 35.0408C13.1923 35.0408 11.1869 35.0528 9.18156 35.0408V32.5546H17.6259C18.0608 35.2218 17.4326 38.227 15.403 40.1339C14.05 41.4856 12.1775 42.2821 10.2688 42.439C8.42049 42.6201 6.51176 42.2701 4.86881 41.377C2.89968 40.327 1.32921 38.5528 0.556056 36.4649C-0.168776 34.5459 -0.180857 32.3735 0.495654 30.4425C1.11176 28.6804 2.29565 27.1235 3.8178 26.0373C5.27955 24.9632 7.05539 24.3718 8.86747 24.2632Z" fill="white"/>
<path d="M57.3105 24.8906H59.8958V42.1251C59.0381 42.1251 58.1683 42.1371 57.3105 42.113C57.3226 36.3803 57.3105 30.6354 57.3105 24.8906Z" fill="white"/>
<path d="M23.3763 30.8649C24.9709 30.5631 26.6984 30.9011 28.0152 31.8545C29.2112 32.6994 30.0447 34.0269 30.2984 35.4752C30.6246 37.1528 30.2138 38.9873 29.1266 40.3149C27.9548 41.7993 26.034 42.5959 24.1615 42.4752C22.4461 42.3786 20.7789 41.5218 19.7642 40.1218C18.6165 38.5769 18.3387 36.4528 18.9669 34.6425C19.595 32.6994 21.3709 31.2149 23.3763 30.8649ZM23.7387 33.158C23.0863 33.3269 22.4823 33.7011 22.0474 34.2321C20.8756 35.6321 20.9481 37.9131 22.2407 39.2166C22.9776 39.9649 24.089 40.3149 25.1158 40.1097C26.0702 39.9407 26.9038 39.3011 27.3628 38.4562C28.1601 37.02 27.9306 35.0407 26.7105 33.9183C25.9252 33.1942 24.7776 32.8925 23.7387 33.158Z" fill="white"/>
<path d="M36.182 30.8648C38.0062 30.5148 39.9995 31.0217 41.3646 32.301C43.5874 34.2924 43.829 38.0217 41.9324 40.3148C40.7847 41.763 38.9243 42.5596 37.0881 42.4751C35.3364 42.4268 33.6089 41.5579 32.5699 40.1217C31.3981 38.5406 31.1444 36.3682 31.8089 34.5217C32.4733 32.6389 34.2129 31.2027 36.182 30.8648ZM36.5444 33.1579C35.8921 33.3268 35.2881 33.701 34.8532 34.22C33.6934 35.5958 33.7418 37.8406 34.9861 39.1561C35.723 39.9406 36.8706 40.3268 37.9337 40.1096C38.876 39.9286 39.7216 39.301 40.1807 38.4562C40.9659 37.0079 40.7364 35.0286 39.5042 33.9062C38.7189 33.182 37.5713 32.8924 36.5444 33.1579Z" fill="white"/>
<path d="M47.0415 31.5647C48.4308 30.6957 50.2791 30.4543 51.7771 31.2026C52.2482 31.4078 52.6348 31.7578 53.0093 32.1078C53.0214 31.7819 53.0093 31.444 53.0214 31.1061C53.8308 31.1181 54.6401 31.1061 55.4616 31.1181V41.7629C55.4495 43.3681 55.0388 45.0698 53.8791 46.2405C52.6106 47.5319 50.6657 47.9302 48.914 47.6646C47.0415 47.3871 45.4106 46.0233 44.6858 44.2974C45.4106 43.9474 46.1717 43.6698 46.9207 43.344C47.3435 44.3336 48.2012 45.1784 49.2764 45.3715C50.3516 45.5647 51.5959 45.2991 52.2965 44.406C53.0455 43.4888 53.0455 42.2336 53.0093 41.1112C52.4536 41.6543 51.8133 42.1371 51.0401 42.3181C49.361 42.7888 47.5126 42.2095 46.22 41.075C44.9153 39.9405 44.1422 38.1905 44.2146 36.4526C44.2509 34.4854 45.3623 32.5905 47.0415 31.5647ZM49.5422 33.1095C48.8052 33.2302 48.1167 33.6405 47.6455 34.2078C46.5099 35.5595 46.5099 37.7198 47.6576 39.0474C48.3099 39.8319 49.361 40.2664 50.3757 40.1578C51.3301 40.0612 52.212 39.4578 52.6831 38.625C53.4804 37.2129 53.3475 35.294 52.2724 34.0629C51.6079 33.3026 50.5448 32.9285 49.5422 33.1095Z" fill="white"/>
<path d="M63.0006 32.1804C64.4503 30.8287 66.6852 30.3701 68.5456 31.0821C70.3094 31.7459 71.4328 33.4235 72.0006 35.1494C69.3791 36.2356 66.7697 37.3097 64.1483 38.3959C64.5107 39.0838 65.0664 39.7114 65.8154 39.9649C66.8664 40.339 68.1228 40.2062 69.0047 39.5062C69.355 39.2407 69.6328 38.8907 69.8986 38.5528C70.563 38.9993 71.2275 39.4338 71.8919 39.8804C70.9496 41.2924 69.3671 42.2821 67.6637 42.439C65.7791 42.6683 63.7738 41.9442 62.5536 40.4718C60.5483 38.1545 60.7415 34.2683 63.0006 32.1804ZM64.2932 34.4132C63.8825 35.0045 63.7134 35.7287 63.7254 36.4407C65.4771 35.7166 67.2288 34.9925 68.9805 34.2563C68.6906 33.5804 67.9899 33.17 67.2771 33.0614C66.1295 32.8563 64.9335 33.4718 64.2932 34.4132Z" fill="white"/>
</g>
<defs>
<clipPath id="clip0_217_13991">
<rect width="72" height="72" fill="white"/>
</clipPath>
</defs>
</svg>
