<svg width="72" height="72" viewBox="0 0 72 72" fill="none" xmlns="http://www.w3.org/2000/svg">
<path d="M7.3376 34.281C7.3376 35.9205 6.54322 37.0309 4.53147 37.0309H3.89578V31.8095C4.12177 31.7967 4.33283 31.7967 4.53147 31.7967C6.43635 31.7966 7.3376 32.6952 7.3376 34.281ZM5.27258 39.3043C8.87219 39.3043 11.1481 37.4533 11.1481 34.2287C11.1479 30.6856 8.71313 29.417 4.74324 29.417C3.20793 29.417 1.35523 29.5224 0.0322266 29.681V42.3187H3.89597V39.3043H5.27258ZM57.0406 34.281C57.0406 35.9205 56.2473 37.0309 54.235 37.0309H53.6015V31.8095C53.8255 31.7967 54.0369 31.7967 54.235 31.7967C56.1401 31.7966 57.0406 32.6952 57.0406 34.281ZM54.978 39.3043C58.5747 39.3043 60.8518 37.4533 60.8518 34.2287C60.8518 30.6856 58.4174 29.417 54.4472 29.417C52.9122 29.417 51.0584 29.5224 49.7353 29.681V42.3187H53.601V39.3043H54.978ZM65.8797 32.9062C65.8797 32.2191 66.5686 31.9014 67.6791 31.9014C68.8971 31.9014 70.2213 32.166 71.1204 32.5375L70.8032 29.7871C69.7969 29.5756 68.8971 29.417 67.2567 29.417C64.1333 29.417 62.0167 30.6468 62.0167 33.2245C62.0167 37.6648 68.0519 36.7667 68.0519 38.8287C68.0519 39.6211 67.4688 40.0438 66.0389 40.0438C64.7704 40.0438 62.8105 39.6211 61.6462 39.0398L62.0708 41.9488C63.2342 42.3717 64.8223 42.5825 66.0931 42.5825C69.321 42.5825 71.9682 41.5247 71.9682 38.3518C71.9682 34.1233 65.8797 34.9157 65.8797 32.9062ZM46.8251 29.681H42.9614V42.3187H46.8251V29.681ZM31.1566 29.681H27.2925V42.3187H31.1566V29.681ZM37.879 39.7799V29.681H34.0149V42.3187H41.0027L41.5844 39.7799H37.879ZM24.4344 29.681H20.5703V34.7041H16.5473V29.681H12.6825V42.3187H16.5471V37.3478H20.5701V42.3187H24.4342L24.4344 29.681Z" fill="white"/>
</svg>
