<svg width="72" height="72" viewBox="0 0 72 72" fill="none" xmlns="http://www.w3.org/2000/svg">
<g clip-path="url(#clip0_217_14008)">
<path fill-rule="evenodd" clip-rule="evenodd" d="M62.9654 38.6921C69.0785 35.7011 72.4501 32.2963 71.9519 29.4765C70.9036 23.5502 52.9415 22.5957 34.4047 25.8866C25.9216 27.3929 17.8085 29.6539 12.316 31.8961C12.6077 31.8776 12.8117 31.8911 12.8117 31.8911C15.1857 31.9567 15.0407 33.4327 15.0407 33.4327L15.0444 34.3344H13.1517V33.7224C13.1517 33.2881 12.6228 33.259 12.6228 33.259C12.2181 33.259 12.1234 33.5339 12.1234 33.5339C11.8993 33.9534 12.2828 34.3156 12.2828 34.3156C12.4782 34.5331 13.4622 34.9887 13.4622 34.9887C13.781 35.112 14.2947 35.4303 14.2947 35.4303C15.2574 36.0092 15.1702 37.1091 15.1702 37.1091V37.8334C15.0546 39.6286 12.5794 39.5774 12.5794 39.5774C9.98781 39.5774 10.0443 37.8773 10.0443 37.8773V36.9887H12.0608V37.6007C12.0608 38.1218 12.5642 38.1452 12.5642 38.1452C13.1144 38.1665 13.1611 37.6343 13.1611 37.6343C13.2361 37.1169 12.6658 36.7912 12.6658 36.7912C12.1619 36.5298 11.6601 36.2645 11.1603 35.9952C10.697 35.6913 10.5089 35.416 10.5089 35.416C10.1759 34.9965 10.198 34.3447 10.198 34.3447V33.7801C10.198 32.9985 10.4081 32.7744 10.4081 32.7744C10.4169 32.7575 10.426 32.7409 10.4356 32.7244C3.66453 35.8535 -0.480533 39.4803 0.0446667 42.4623C1.11022 48.5115 18.0497 49.305 37.9733 46.2366C47.1471 44.8241 55.1308 42.2235 61.1726 39.5303C61.1296 39.5323 61.0837 39.5323 61.0399 39.5323C61.0399 39.5323 58.5979 39.7298 58.5401 37.7613V33.9538C58.5401 33.9538 58.2361 31.8551 60.9719 31.8551C60.9719 31.8551 62.7532 31.7973 63.2235 32.8539C63.2235 32.8539 63.4553 33.1365 63.3939 34.3049H61.4967V33.7064C61.4967 33.7064 61.4934 33.223 61.0014 33.223C61.0014 33.223 60.4869 33.2447 60.4869 33.6499V37.5872C60.4869 37.5872 60.4651 38.1157 61.0444 38.1157C61.0444 38.1157 61.5196 38.105 61.5196 37.5491V36.4106H61.0018V35.3504H63.4389V37.5872C63.4389 37.5872 63.4324 38.0575 63.2374 38.3324C63.2382 38.3328 63.0407 38.6356 62.9654 38.6921ZM56.0186 39.3304H53.7838L51.7907 34.9334H51.7068L51.8194 39.33H49.9439V32.1402H52.2475L54.1726 36.5016H54.2549L54.1197 32.1394H56.0186V39.3304ZM44.2671 37.5446C44.2671 38.1538 44.8456 38.1231 44.8456 38.1231C45.3962 38.1231 45.3679 37.5295 45.3679 37.5295V32.1091H47.3778V37.595C47.3778 39.5717 44.8751 39.5418 44.8751 39.5418C41.9938 39.5418 42.2048 37.5008 42.2048 37.5008V32.1087H44.2606L44.2671 37.5446ZM37.9508 34.3344V33.7224C37.9508 33.2877 37.4227 33.259 37.4227 33.259C37.0172 33.259 36.9225 33.5339 36.9225 33.5339C36.6984 33.9534 37.0827 34.3156 37.0827 34.3156C37.2781 34.5323 38.2621 34.9887 38.2621 34.9887C38.5805 35.1116 39.0942 35.4303 39.0942 35.4303C40.0569 36.0092 39.9705 37.1091 39.9705 37.1091V37.8334C39.8545 39.6286 37.3797 39.5778 37.3797 39.5778C34.7877 39.5778 34.8443 37.8773 34.8443 37.8773V36.9887H36.8611V37.6007C36.8611 38.1218 37.3646 38.1452 37.3646 38.1452C37.9152 38.1665 37.9606 37.6343 37.9606 37.6343C38.0368 37.1169 37.4662 36.7912 37.4662 36.7912C36.9623 36.5297 36.4604 36.2644 35.9606 35.9952C35.4969 35.6913 35.3092 35.416 35.3092 35.416C34.9766 34.996 34.9975 34.3443 34.9975 34.3443V33.7797C34.9975 32.9981 35.2076 32.774 35.2076 32.774C35.7435 31.7678 37.6108 31.8907 37.6108 31.8907C39.9848 31.9563 39.8398 33.4327 39.8398 33.4327L39.8439 34.3344H37.9508ZM28.0191 32.1382L28.625 36.0735H28.7729L29.4067 32.1386H32.537L32.7394 39.3291H30.8573L30.8127 33.9129H30.6828L29.7025 39.3279H27.734L26.7414 33.9112H26.5943L26.5717 39.3295H24.7004L24.8585 32.1382H28.0191ZM20.6757 39.3214L19.9383 33.747H19.7732L19.0354 39.3214H17.0211L18.2656 32.132H21.4459L22.6913 39.3214H20.6757Z" fill="white"/>
</g>
<defs>
<clipPath id="clip0_217_14008">
<rect width="72" height="72" fill="white"/>
</clipPath>
</defs>
</svg>
