<svg width="72" height="72" viewBox="0 0 72 72" fill="none" xmlns="http://www.w3.org/2000/svg">
<path fill-rule="evenodd" clip-rule="evenodd" d="M6.44364 41.2452H3.66608V33.2835H0.454102V30.8936H9.8267V33.2835H6.44364V41.2452ZM11.1408 33.6252C11.5599 31.1887 13.7323 30.8316 15.8121 30.8316C19.3816 30.8316 20.6385 31.7161 20.6385 35.4563C20.6385 39.2894 20.5455 41.3226 15.8898 41.3226C14.0431 41.3226 11.8393 41.1832 11.2185 39.0571C11.0168 38.3586 11.0011 37.6295 11.0011 36.9V36.1391C11.0011 35.3166 11.0011 34.4477 11.1408 33.6252ZM13.841 36.7132C13.841 38.1722 13.872 38.948 15.5947 38.948C17.4882 38.948 17.7829 38.4822 17.7829 36.7132C17.7829 36.2168 17.7986 35.7047 17.7986 35.2079C17.7986 33.8266 17.5812 33.2061 16.0915 33.2061C13.9191 33.2061 13.8877 33.4235 13.8414 36.0924V36.7132H13.841ZM28.7534 34.1217C28.7534 33.0661 28.3806 32.9267 27.3878 32.9267H27.1084C26.3789 32.9267 25.6031 32.9577 25.6031 33.8733C25.6031 34.5098 25.7895 34.8045 26.4566 34.8512C28.8618 35.0529 31.7021 34.5718 31.7021 37.9085C31.7021 38.7934 31.7021 39.9106 30.9726 40.5314C30.1187 41.2452 28.9394 41.3072 27.8532 41.3072H27.1704C24.3148 41.3072 22.8248 41.1832 22.8248 37.8928H25.463C25.463 38.6686 25.6494 39.1344 26.5182 39.1344H27.7132C28.4117 39.1344 28.9701 39.041 28.9701 38.1098C28.9701 37.1943 28.427 37.1943 27.6508 37.148C24.6558 36.9463 22.8401 37.2253 22.8401 33.7802C22.8401 31.9798 23.5539 31.0333 25.4006 30.8936C26.0057 30.8469 26.6109 30.8159 27.2164 30.8159C29.6219 30.8159 31.4066 30.8626 31.4066 33.7959C31.4066 33.9046 31.3909 34.0133 31.3909 34.122H28.7534V34.1217ZM43.0256 41.2452H40.2473V37.179H36.6469V41.2452H33.8689V30.8936H36.6469V34.8045H40.2473V30.8936H43.0256V41.2452ZM48.4496 41.2452H45.6721V30.8936H48.4496V41.2452ZM51.114 30.8936H56.7476C58.6253 30.8936 59.8359 31.4057 59.8359 33.5319C59.8359 34.7268 59.7272 35.689 58.2223 35.9374V36.03C59.6193 36.1544 60.0066 36.8992 60.0066 38.2648C60.0066 40.5927 59.2312 41.2449 56.7943 41.2449H51.114V30.8936ZM55.6614 35.0372C56.4222 35.0062 57.089 35.0996 57.089 34.1527C57.089 33.4078 56.8877 33.1748 56.1428 33.1748H53.8923V35.0372H55.6614ZM55.7394 38.9637C56.6083 38.9637 57.2444 38.948 57.2444 37.9395C57.2444 36.9773 56.7943 36.9463 55.9255 36.9463H53.8923V38.9637H55.7394ZM68.5705 41.2452H71.3952L68.2441 30.8936H64.0389L60.9345 41.2452H63.8215L64.4132 39.1658H67.9703L68.5705 41.2452ZM64.9835 37.1637L66.1807 32.9577L67.3939 37.1637H64.9835Z" fill="white"/>
</svg>
