<svg width="304" height="204" viewBox="0 0 304 204" fill="none" xmlns="http://www.w3.org/2000/svg">
<g filter="url(#filter0_d_1_3529)">
<rect x="4.5" y="0.5" width="295" height="195" stroke="black" shape-rendering="crispEdges"/>
<rect x="4" width="296" height="196" rx="4" fill="url(#paint0_radial_1_3529)"/>
<path d="M264 37.125C264.621 37.125 265.125 36.6213 265.125 36C265.125 35.3787 264.621 34.875 264 34.875C263.379 34.875 262.875 35.3787 262.875 36C262.875 36.6213 263.379 37.125 264 37.125Z" fill="white" stroke="white"/>
<path d="M270 37.125C270.621 37.125 271.125 36.6213 271.125 36C271.125 35.3787 270.621 34.875 270 34.875C269.379 34.875 268.875 35.3787 268.875 36C268.875 36.6213 269.379 37.125 270 37.125Z" fill="white" stroke="white"/>
<path d="M258 37.125C258.621 37.125 259.125 36.6213 259.125 36C259.125 35.3787 258.621 34.875 258 34.875C257.379 34.875 256.875 35.3787 256.875 36C256.875 36.6213 257.379 37.125 258 37.125Z" fill="white" stroke="white"/>
<g clip-path="url(#clip0_1_3529)">
<path d="M45.3404 158.271H42.0765L44.1164 145.735H47.3807L45.3404 158.271ZM39.3307 145.735L36.219 154.358L35.8508 152.501L35.8511 152.501L34.7529 146.864C34.7529 146.864 34.6201 145.735 33.2046 145.735H28.0604L28 145.947C28 145.947 29.5731 146.274 31.4142 147.38L34.2498 158.272H37.6506L42.8434 145.735H39.3307ZM65.0031 158.271H68.0001L65.3871 145.734H62.7633C61.5517 145.734 61.2566 146.669 61.2566 146.669L56.3887 158.271H59.7912L60.4716 156.409H64.6208L65.0031 158.271ZM61.4115 153.837L63.1265 149.145L64.0913 153.837H61.4115ZM56.6439 148.75L57.1097 146.057C57.1097 146.057 55.6724 145.511 54.1741 145.511C52.5544 145.511 48.708 146.219 48.708 149.661C48.708 152.9 53.2224 152.94 53.2224 154.641C53.2224 156.342 49.1731 156.038 47.8367 154.965L47.3515 157.78C47.3515 157.78 48.8089 158.488 51.0356 158.488C53.263 158.488 56.6231 157.334 56.6231 154.196C56.6231 150.936 52.0681 150.632 52.0681 149.215C52.0685 147.798 55.2472 147.98 56.6439 148.75Z" fill="white"/>
<path d="M35.8512 152.503L34.7529 146.865C34.7529 146.865 34.6201 145.736 33.2046 145.736H28.0604L28 145.949C28 145.949 30.4725 146.461 32.8441 148.381C35.1117 150.216 35.8512 152.503 35.8512 152.503Z" fill="white"/>
</g>
<path d="M33.552 42.16C32.24 42.16 31.1653 41.888 30.328 41.344C29.4907 40.8 29.0027 39.9787 28.864 38.88L30.896 38.808C31.04 39.3947 31.344 39.8373 31.808 40.136C32.2773 40.4293 32.856 40.576 33.544 40.576C33.9547 40.576 34.3307 40.5067 34.672 40.368C35.0133 40.2293 35.2853 40.0373 35.488 39.792C35.6907 39.5467 35.792 39.264 35.792 38.944C35.792 38.48 35.648 38.1227 35.36 37.872C35.0773 37.616 34.632 37.416 34.024 37.272L32.08 36.808C31.216 36.6107 30.5253 36.264 30.008 35.768C29.4907 35.2667 29.2267 34.5947 29.216 33.752C29.2107 33.0533 29.3947 32.4453 29.768 31.928C30.1467 31.4053 30.6667 31.0027 31.328 30.72C31.9893 30.432 32.7387 30.288 33.576 30.288C34.4133 30.288 35.136 30.4427 35.744 30.752C36.352 31.056 36.8213 31.464 37.152 31.976C37.4827 32.488 37.6507 33.0507 37.656 33.664L35.68 33.728C35.5893 33.136 35.384 32.68 35.064 32.36C34.744 32.0347 34.2533 31.872 33.592 31.872C33.272 31.872 32.9733 31.9093 32.696 31.984C32.4187 32.0587 32.176 32.168 31.968 32.312C31.76 32.456 31.5973 32.632 31.48 32.84C31.3627 33.0427 31.304 33.2747 31.304 33.536C31.304 33.9093 31.432 34.2053 31.688 34.424C31.9493 34.6373 32.424 34.8427 33.112 35.04L35 35.536C36.0187 35.7973 36.7493 36.224 37.192 36.816C37.64 37.408 37.864 38.112 37.864 38.928C37.864 39.5733 37.6853 40.1387 37.328 40.624C36.9707 41.104 36.4667 41.48 35.816 41.752C35.1707 42.024 34.416 42.16 33.552 42.16ZM32.72 28.744H34.448V30.816H32.72V28.744ZM32.656 41.52H34.376V43.592H32.656V41.52ZM43.5424 42.176C42.865 42.176 42.2304 42.0453 41.6384 41.784C41.0464 41.5227 40.5584 41.152 40.1744 40.672C39.7904 40.192 39.5664 39.6267 39.5024 38.976H41.3664C41.4784 39.4613 41.721 39.856 42.0944 40.16C42.4677 40.4587 42.9264 40.608 43.4704 40.608C44.0837 40.608 44.6144 40.456 45.0624 40.152C45.5157 39.848 45.8544 39.3707 46.0784 38.72C46.3024 38.0693 46.385 37.224 46.3264 36.184C46.1824 36.5253 45.9717 36.824 45.6944 37.08C45.4224 37.336 45.097 37.536 44.7184 37.68C44.345 37.8187 43.929 37.888 43.4704 37.888C42.697 37.888 42.0117 37.7413 41.4144 37.448C40.8224 37.1493 40.3584 36.7253 40.0224 36.176C39.6864 35.6213 39.5184 34.9653 39.5184 34.208C39.5184 33.44 39.689 32.76 40.0304 32.168C40.377 31.576 40.8624 31.112 41.4864 30.776C42.1157 30.44 42.8544 30.272 43.7024 30.272C44.6464 30.272 45.4624 30.504 46.1504 30.968C46.8384 31.432 47.3664 32.0933 47.7344 32.952C48.1077 33.8107 48.2944 34.8293 48.2944 36.008C48.2944 37.352 48.105 38.4827 47.7264 39.4C47.353 40.312 46.8117 41.0027 46.1024 41.472C45.3984 41.9413 44.545 42.176 43.5424 42.176ZM43.7584 36.304C44.1317 36.304 44.489 36.2187 44.8304 36.048C45.1717 35.8773 45.4517 35.656 45.6704 35.384C45.889 35.112 45.9984 34.824 45.9984 34.52C46.0037 33.9653 45.913 33.4853 45.7264 33.08C45.5397 32.6693 45.2757 32.352 44.9344 32.128C44.5984 31.8987 44.2037 31.784 43.7504 31.784C43.3397 31.784 42.9717 31.8827 42.6464 32.08C42.3264 32.2773 42.0757 32.552 41.8944 32.904C41.713 33.2507 41.6224 33.6533 41.6224 34.112C41.6224 34.7947 41.8117 35.3307 42.1904 35.72C42.569 36.1093 43.0917 36.304 43.7584 36.304ZM50.9116 30.432H58.1036L58.0316 32.056H52.4956L52.2316 35.272C52.6423 34.984 53.0556 34.776 53.4716 34.648C53.8876 34.52 54.3463 34.456 54.8476 34.456C55.5836 34.456 56.253 34.6 56.8556 34.888C57.4583 35.176 57.9383 35.6 58.2956 36.16C58.653 36.72 58.8316 37.4053 58.8316 38.216C58.8316 39.0267 58.6503 39.728 58.2876 40.32C57.9303 40.912 57.4236 41.3707 56.7676 41.696C56.117 42.016 55.3463 42.176 54.4556 42.176C53.7196 42.176 53.0343 42.056 52.3996 41.816C51.7703 41.5707 51.2263 41.2347 50.7676 40.808C50.3143 40.3813 49.9756 39.8933 49.7516 39.344L51.3276 38.512C51.525 38.9067 51.7596 39.2613 52.0316 39.576C52.309 39.8907 52.6316 40.1387 52.9996 40.32C53.373 40.496 53.7996 40.584 54.2796 40.584C55.0316 40.584 55.6343 40.376 56.0876 39.96C56.5463 39.5387 56.7756 38.9787 56.7756 38.28C56.7756 37.848 56.669 37.464 56.4556 37.128C56.2476 36.792 55.9623 36.5307 55.5996 36.344C55.2423 36.152 54.8343 36.056 54.3756 36.056C54.1036 36.056 53.8476 36.08 53.6076 36.128C53.373 36.176 53.1356 36.2667 52.8956 36.4C52.6556 36.528 52.397 36.7227 52.1196 36.984C52.0663 37.0107 52.0263 37.024 51.9996 37.024C51.9783 37.0187 51.9383 37.0027 51.8796 36.976L50.3836 36.368L50.9116 30.432ZM60.2905 44.136L61.2025 42.048L60.4425 41.992V39.952H62.5705V41.736L61.0745 44.136H60.2905ZM73.2275 30.432H75.1635V37.6H77.0115V39.256H75.1635V42H73.2755L73.2835 39.256H67.8995V37.6L73.2275 30.432ZM69.7235 37.6H73.2675V32.848L69.7235 37.6ZM82.5324 30.272C83.855 30.272 84.9004 30.7813 85.6684 31.8C86.4417 32.8133 86.8284 34.2933 86.8284 36.24C86.8284 38.176 86.4444 39.6507 85.6764 40.664C84.9137 41.672 83.863 42.176 82.5244 42.176C81.1857 42.176 80.1324 41.672 79.3644 40.664C78.6017 39.656 78.2204 38.1867 78.2204 36.256C78.2204 34.9547 78.3964 33.8613 78.7484 32.976C79.1004 32.0853 79.599 31.4133 80.2444 30.96C80.8897 30.5013 81.6524 30.272 82.5324 30.272ZM82.5324 40.552C83.2844 40.552 83.8444 40.2187 84.2124 39.552C84.5804 38.8853 84.7644 37.784 84.7644 36.248C84.7644 34.68 84.5777 33.5547 84.2044 32.872C83.831 32.1893 83.271 31.848 82.5244 31.848C81.7777 31.848 81.2124 32.192 80.8284 32.88C80.4497 33.568 80.2604 34.6907 80.2604 36.248C80.2604 37.7787 80.4497 38.88 80.8284 39.552C81.2124 40.2187 81.7804 40.552 82.5324 40.552ZM92.5324 30.272C93.855 30.272 94.9004 30.7813 95.6684 31.8C96.4417 32.8133 96.8284 34.2933 96.8284 36.24C96.8284 38.176 96.4444 39.6507 95.6764 40.664C94.9137 41.672 93.863 42.176 92.5244 42.176C91.1857 42.176 90.1324 41.672 89.3644 40.664C88.6017 39.656 88.2204 38.1867 88.2204 36.256C88.2204 34.9547 88.3964 33.8613 88.7484 32.976C89.1004 32.0853 89.599 31.4133 90.2444 30.96C90.8897 30.5013 91.6524 30.272 92.5324 30.272ZM92.5324 40.552C93.2844 40.552 93.8444 40.2187 94.2124 39.552C94.5804 38.8853 94.7644 37.784 94.7644 36.248C94.7644 34.68 94.5777 33.5547 94.2044 32.872C93.831 32.1893 93.271 31.848 92.5244 31.848C91.7777 31.848 91.2124 32.192 90.8284 32.88C90.4497 33.568 90.2604 34.6907 90.2604 36.248C90.2604 37.7787 90.4497 38.88 90.8284 39.552C91.2124 40.2187 91.7804 40.552 92.5324 40.552ZM98.3945 42V39.76H100.595V42H98.3945ZM106.595 30.272C107.918 30.272 108.963 30.7813 109.731 31.8C110.504 32.8133 110.891 34.2933 110.891 36.24C110.891 38.176 110.507 39.6507 109.739 40.664C108.976 41.672 107.926 42.176 106.587 42.176C105.248 42.176 104.195 41.672 103.427 40.664C102.664 39.656 102.283 38.1867 102.283 36.256C102.283 34.9547 102.459 33.8613 102.811 32.976C103.163 32.0853 103.662 31.4133 104.307 30.96C104.952 30.5013 105.715 30.272 106.595 30.272ZM106.595 40.552C107.347 40.552 107.907 40.2187 108.275 39.552C108.643 38.8853 108.827 37.784 108.827 36.248C108.827 34.68 108.64 33.5547 108.267 32.872C107.894 32.1893 107.334 31.848 106.587 31.848C105.84 31.848 105.275 32.192 104.891 32.88C104.512 33.568 104.323 34.6907 104.323 36.248C104.323 37.7787 104.512 38.88 104.891 39.552C105.275 40.2187 105.843 40.552 106.595 40.552ZM116.595 30.272C117.918 30.272 118.963 30.7813 119.731 31.8C120.504 32.8133 120.891 34.2933 120.891 36.24C120.891 38.176 120.507 39.6507 119.739 40.664C118.976 41.672 117.926 42.176 116.587 42.176C115.248 42.176 114.195 41.672 113.427 40.664C112.664 39.656 112.283 38.1867 112.283 36.256C112.283 34.9547 112.459 33.8613 112.811 32.976C113.163 32.0853 113.662 31.4133 114.307 30.96C114.952 30.5013 115.715 30.272 116.595 30.272ZM116.595 40.552C117.347 40.552 117.907 40.2187 118.275 39.552C118.643 38.8853 118.827 37.784 118.827 36.248C118.827 34.68 118.64 33.5547 118.267 32.872C117.894 32.1893 117.334 31.848 116.587 31.848C115.84 31.848 115.275 32.192 114.891 32.88C114.512 33.568 114.323 34.6907 114.323 36.248C114.323 37.7787 114.512 38.88 114.891 39.552C115.275 40.2187 115.843 40.552 116.595 40.552ZM135.14 38C135.14 38.8907 134.994 39.6453 134.7 40.264C134.407 40.8827 133.948 41.3547 133.324 41.68C132.706 42 131.9 42.16 130.908 42.16C129.906 42.16 129.092 41.9947 128.468 41.664C127.85 41.3333 127.396 40.848 127.108 40.208C126.826 39.568 126.684 38.7813 126.684 37.848V30.432H128.22V38.072C128.22 39.0053 128.452 39.704 128.916 40.168C129.38 40.632 130.044 40.864 130.908 40.864C131.49 40.864 131.983 40.7627 132.388 40.56C132.799 40.3573 133.111 40.0507 133.324 39.64C133.543 39.224 133.652 38.7013 133.652 38.072V30.432H135.14V38ZM141.815 42.16C141.271 42.16 140.743 42.0933 140.231 41.96C139.719 41.8213 139.255 41.616 138.839 41.344C138.423 41.072 138.077 40.736 137.799 40.336C137.527 39.9307 137.357 39.4613 137.287 38.928H138.839C138.935 39.3653 139.125 39.7333 139.407 40.032C139.695 40.3307 140.045 40.5547 140.455 40.704C140.871 40.8533 141.322 40.928 141.807 40.928C142.351 40.928 142.837 40.8533 143.263 40.704C143.695 40.5493 144.034 40.3307 144.279 40.048C144.53 39.7653 144.655 39.4267 144.655 39.032C144.655 38.6853 144.575 38.384 144.415 38.128C144.261 37.872 144.034 37.6587 143.735 37.488C143.437 37.3173 143.074 37.184 142.647 37.088L140.375 36.56C139.522 36.3733 138.853 36.04 138.367 35.56C137.887 35.08 137.642 34.4453 137.631 33.656C137.631 32.9893 137.807 32.4027 138.159 31.896C138.517 31.3893 139.005 30.9947 139.623 30.712C140.247 30.4293 140.959 30.288 141.759 30.288C142.682 30.288 143.458 30.4453 144.087 30.76C144.717 31.0747 145.191 31.488 145.511 32C145.831 32.512 145.994 33.0587 145.999 33.64H144.471C144.423 33.1173 144.269 32.704 144.007 32.4C143.751 32.0907 143.429 31.872 143.039 31.744C142.65 31.6107 142.226 31.544 141.767 31.544C141.437 31.544 141.117 31.5867 140.807 31.672C140.503 31.752 140.229 31.8747 139.983 32.04C139.743 32.2053 139.551 32.4107 139.407 32.656C139.263 32.9013 139.191 33.1867 139.191 33.512C139.191 33.928 139.333 34.2667 139.615 34.528C139.903 34.7893 140.423 35.0133 141.175 35.2L143.375 35.728C143.951 35.8507 144.421 36.032 144.783 36.272C145.151 36.512 145.434 36.784 145.631 37.088C145.834 37.392 145.973 37.7093 146.047 38.04C146.127 38.3707 146.167 38.696 146.167 39.016C146.167 39.5973 145.994 40.128 145.647 40.608C145.301 41.0827 144.802 41.4613 144.151 41.744C143.506 42.0213 142.727 42.16 141.815 42.16ZM148.622 30.432C148.659 30.432 148.771 30.4347 148.958 30.44C149.15 30.44 149.382 30.44 149.654 30.44C149.926 30.4347 150.208 30.4347 150.502 30.44C150.795 30.44 151.064 30.4427 151.31 30.448C152.728 30.4693 153.878 30.7013 154.758 31.144C155.643 31.5813 156.291 32.2187 156.702 33.056C157.118 33.8933 157.326 34.9227 157.326 36.144C157.326 37.424 157.102 38.4987 156.654 39.368C156.211 40.2373 155.534 40.8933 154.622 41.336C153.715 41.7787 152.56 42 151.158 42H148.622V30.432ZM150.142 31.704V40.728H151.158C152.112 40.728 152.934 40.5813 153.622 40.288C154.31 39.9893 154.838 39.5067 155.206 38.84C155.579 38.1733 155.766 37.2827 155.766 36.168C155.766 35.0533 155.584 34.1707 155.222 33.52C154.864 32.8693 154.347 32.4053 153.67 32.128C152.992 31.8453 152.176 31.704 151.222 31.704H150.142Z" fill="white"/>
<path opacity="0.7" d="M32.015 75.937C32.587 75.937 33.0948 76.0543 33.5385 76.289C33.9822 76.5237 34.3378 76.839 34.6055 77.235C34.8768 77.631 35.0382 78.0692 35.0895 78.5495H33.8355C33.7805 78.2488 33.6742 77.9775 33.5165 77.7355C33.3625 77.4898 33.1572 77.2973 32.9005 77.158C32.6438 77.015 32.3395 76.9435 31.9875 76.9435C31.5365 76.9435 31.1533 77.0498 30.838 77.2625C30.5227 77.4752 30.2825 77.807 30.1175 78.258C29.9562 78.709 29.8755 79.2902 29.8755 80.0015C29.8755 81.0758 30.057 81.8623 30.42 82.361C30.783 82.856 31.3055 83.1035 31.9875 83.1035C32.3395 83.1035 32.6438 83.0283 32.9005 82.878C33.1572 82.724 33.3625 82.5205 33.5165 82.2675C33.6742 82.0108 33.7805 81.7322 33.8355 81.4315H35.0895C35.0455 81.7798 34.9538 82.1153 34.8145 82.438C34.6752 82.757 34.4808 83.043 34.2315 83.296C33.9858 83.549 33.6797 83.7488 33.313 83.8955C32.9463 84.0385 32.5137 84.11 32.015 84.11C31.2963 84.11 30.6803 83.945 30.167 83.615C29.6537 83.2813 29.2595 82.8083 28.9845 82.196C28.7132 81.58 28.5775 80.843 28.5775 79.985C28.5775 79.1307 28.7132 78.4028 28.9845 77.8015C29.2558 77.1965 29.6482 76.7345 30.1615 76.4155C30.6748 76.0965 31.2927 75.937 32.015 75.937ZM35.8998 84L38.7708 76.047H40.0688L42.9343 84H41.7463L40.9983 81.9155H37.8578L37.0933 84H35.8998ZM38.1383 80.8485H40.6958L39.4253 77.202L38.1383 80.8485ZM50.1761 84H48.9386L47.5306 80.6725H45.5341V84H44.3571V76.047H47.5141C48.1044 76.047 48.5939 76.1387 48.9826 76.322C49.3713 76.5017 49.6609 76.7583 49.8516 77.092C50.0423 77.4257 50.1376 77.8198 50.1376 78.2745C50.1376 78.7035 50.0643 79.061 49.9176 79.347C49.7746 79.633 49.5876 79.8658 49.3566 80.0455C49.1293 80.2252 48.8891 80.3663 48.6361 80.469L50.1761 84ZM47.1951 79.721C47.7488 79.721 48.1778 79.6018 48.4821 79.3635C48.7864 79.1215 48.9386 78.7768 48.9386 78.3295C48.9386 77.8895 48.7993 77.5558 48.5206 77.3285C48.2456 77.1012 47.8716 76.9875 47.3986 76.9875H45.5341V79.721H47.1951ZM51.8551 76.047C51.8845 76.047 51.9706 76.0488 52.1136 76.0525C52.2603 76.0525 52.4363 76.0525 52.6416 76.0525C52.847 76.0488 53.056 76.0488 53.2686 76.0525C53.485 76.0525 53.6775 76.0543 53.8461 76.058C54.8178 76.0727 55.608 76.234 56.2166 76.542C56.8253 76.85 57.2708 77.2937 57.5531 77.873C57.8391 78.4487 57.9821 79.1508 57.9821 79.9795C57.9821 80.8412 57.83 81.5727 57.5256 82.174C57.2213 82.7717 56.7556 83.2263 56.1286 83.538C55.5053 83.846 54.7151 84 53.7581 84H51.8551V76.047ZM53.0541 77.037V83.01H53.7691C54.3705 83.01 54.893 82.9128 55.3366 82.7185C55.784 82.5205 56.1305 82.2015 56.3761 81.7615C56.6218 81.3178 56.7446 80.7257 56.7446 79.985C56.7446 79.259 56.6273 78.6815 56.3926 78.2525C56.158 77.8198 55.8206 77.51 55.3806 77.323C54.9443 77.1323 54.4181 77.037 53.8021 77.037H53.0541ZM67.2252 76.047H68.4077V84H67.3517L63.2157 77.9445V84H62.0387V76.047H63.1772L67.2252 81.976V76.047ZM76.3099 81.173C76.3099 81.7927 76.2073 82.3225 76.0019 82.7625C75.7966 83.1988 75.4739 83.5325 75.0339 83.7635C74.5976 83.9945 74.0274 84.11 73.3234 84.11C72.6121 84.11 72.0364 83.9927 71.5964 83.758C71.1601 83.5233 70.8411 83.1805 70.6394 82.7295C70.4414 82.2785 70.3424 81.7285 70.3424 81.0795V76.047H71.5579V81.228C71.5579 81.8587 71.7119 82.328 72.0199 82.636C72.3316 82.9403 72.7661 83.0925 73.3234 83.0925C73.6938 83.0925 74.0128 83.0265 74.2804 82.8945C74.5518 82.7588 74.7589 82.5535 74.9019 82.2785C75.0449 81.9998 75.1164 81.6497 75.1164 81.228V76.047H76.3099V81.173ZM78.1198 84V76.047H79.7808L82.0193 82.372L84.2908 76.047H85.9408V84H84.7363V77.664L82.5363 84H81.5078L79.3188 77.7135V84H78.1198ZM87.9489 84V76.047H90.5944C91.5807 76.047 92.3232 76.2248 92.8219 76.5805C93.3242 76.9362 93.5754 77.4495 93.5754 78.1205C93.5754 78.5348 93.4672 78.8923 93.2509 79.193C93.0382 79.49 92.6642 79.7393 92.1289 79.941C92.4442 80.0107 92.7082 80.1115 92.9209 80.2435C93.1335 80.3718 93.3004 80.5203 93.4214 80.689C93.546 80.8577 93.634 81.041 93.6854 81.239C93.7404 81.437 93.7679 81.6423 93.7679 81.855C93.7679 82.5773 93.513 83.1163 93.0034 83.472C92.4974 83.824 91.7255 84 90.6879 84H87.9489ZM89.1259 83.043H90.6934C91.3094 83.043 91.7769 82.9385 92.0959 82.7295C92.4149 82.5168 92.5744 82.1997 92.5744 81.778C92.5744 81.4737 92.4955 81.2243 92.3379 81.03C92.1802 80.8357 91.9675 80.6927 91.6999 80.601C91.4322 80.5093 91.1334 80.4635 90.8034 80.4635H89.1259V83.043ZM89.1259 79.49H90.8034C91.0014 79.49 91.1957 79.4698 91.3864 79.4295C91.577 79.3892 91.7512 79.3232 91.9089 79.2315C92.0665 79.1362 92.193 79.0097 92.2884 78.852C92.3837 78.6943 92.4314 78.5018 92.4314 78.2745C92.4314 77.8418 92.2682 77.521 91.9419 77.312C91.6155 77.103 91.192 76.9985 90.6714 76.9985H89.1259V79.49ZM95.4577 84V76.047H100.595L100.589 77.07H96.6402V79.4845H100.166V80.491H96.6347V82.9605L100.688 82.966V84H95.4577ZM108.259 84H107.022L105.614 80.6725H103.617V84H102.44V76.047H105.597C106.187 76.047 106.677 76.1387 107.066 76.322C107.454 76.5017 107.744 76.7583 107.935 77.092C108.125 77.4257 108.221 77.8198 108.221 78.2745C108.221 78.7035 108.147 79.061 108.001 79.347C107.858 79.633 107.671 79.8658 107.44 80.0455C107.212 80.2252 106.972 80.3663 106.719 80.469L108.259 84ZM105.278 79.721C105.832 79.721 106.261 79.6018 106.565 79.3635C106.869 79.1215 107.022 78.7768 107.022 78.3295C107.022 77.8895 106.882 77.5558 106.604 77.3285C106.329 77.1012 105.955 76.9875 105.482 76.9875H103.617V79.721H105.278Z" fill="white"/>
<path d="M33.54 109.29L31.98 106.76L30.37 109.35L29.27 108.6L31.16 106.25L28.53 105.51L28.95 104.34L31.46 105.35L31.28 102.54H32.64L32.46 105.36L35 104.26L35.38 105.43L32.81 106.24L34.65 108.5L33.54 109.29ZM41.4111 109.29L39.8511 106.76L38.2411 109.35L37.1411 108.6L39.0311 106.25L36.4011 105.51L36.8211 104.34L39.3311 105.35L39.1511 102.54H40.5111L40.3311 105.36L42.8711 104.26L43.2511 105.43L40.6811 106.24L42.5211 108.5L41.4111 109.29ZM49.2822 109.29L47.7222 106.76L46.1122 109.35L45.0122 108.6L46.9022 106.25L44.2722 105.51L44.6922 104.34L47.2022 105.35L47.0222 102.54H48.3822L48.2022 105.36L50.7422 104.26L51.1222 105.43L48.5522 106.24L50.3922 108.5L49.2822 109.29ZM57.1533 109.29L55.5933 106.76L53.9833 109.35L52.8833 108.6L54.7733 106.25L52.1433 105.51L52.5633 104.34L55.0733 105.35L54.8933 102.54H56.2533L56.0733 105.36L58.6133 104.26L58.9933 105.43L56.4233 106.24L58.2633 108.5L57.1533 109.29ZM74.2431 109.29L72.6831 106.76L71.0731 109.35L69.9731 108.6L71.8631 106.25L69.2331 105.51L69.6531 104.34L72.1631 105.35L71.9831 102.54H73.3431L73.1631 105.36L75.7031 104.26L76.0831 105.43L73.5131 106.24L75.3531 108.5L74.2431 109.29ZM82.1142 109.29L80.5542 106.76L78.9442 109.35L77.8442 108.6L79.7342 106.25L77.1042 105.51L77.5242 104.34L80.0342 105.35L79.8542 102.54H81.2142L81.0342 105.36L83.5742 104.26L83.9542 105.43L81.3842 106.24L83.2242 108.5L82.1142 109.29ZM89.9853 109.29L88.4253 106.76L86.8153 109.35L85.7153 108.6L87.6053 106.25L84.9753 105.51L85.3953 104.34L87.9053 105.35L87.7253 102.54H89.0853L88.9053 105.36L91.4453 104.26L91.8253 105.43L89.2553 106.24L91.0953 108.5L89.9853 109.29ZM97.8564 109.29L96.2964 106.76L94.6864 109.35L93.5864 108.6L95.4764 106.25L92.8464 105.51L93.2664 104.34L95.7764 105.35L95.5964 102.54H96.9564L96.7764 105.36L99.3164 104.26L99.6964 105.43L97.1264 106.24L98.9664 108.5L97.8564 109.29ZM114.946 109.29L113.386 106.76L111.776 109.35L110.676 108.6L112.566 106.25L109.936 105.51L110.356 104.34L112.866 105.35L112.686 102.54H114.046L113.866 105.36L116.406 104.26L116.786 105.43L114.216 106.24L116.056 108.5L114.946 109.29ZM122.817 109.29L121.257 106.76L119.647 109.35L118.547 108.6L120.437 106.25L117.807 105.51L118.227 104.34L120.737 105.35L120.557 102.54H121.917L121.737 105.36L124.277 104.26L124.657 105.43L122.087 106.24L123.927 108.5L122.817 109.29ZM130.688 109.29L129.128 106.76L127.518 109.35L126.418 108.6L128.308 106.25L125.678 105.51L126.098 104.34L128.608 105.35L128.428 102.54H129.788L129.608 105.36L132.148 104.26L132.528 105.43L129.958 106.24L131.798 108.5L130.688 109.29ZM138.56 109.29L137 106.76L135.39 109.35L134.29 108.6L136.18 106.25L133.55 105.51L133.97 104.34L136.48 105.35L136.3 102.54H137.66L137.48 105.36L140.02 104.26L140.4 105.43L137.83 106.24L139.67 108.5L138.56 109.29ZM151.259 106.75C151.259 105.817 151.486 105.023 151.939 104.37C152.393 103.71 152.996 103.207 153.749 102.86C154.509 102.513 155.346 102.34 156.259 102.34C157.259 102.34 158.143 102.487 158.909 102.78C159.676 103.067 160.276 103.487 160.709 104.04C161.143 104.593 161.359 105.27 161.359 106.07C161.359 106.783 161.133 107.43 160.679 108.01C160.226 108.583 159.533 109.033 158.599 109.36C159.233 109.533 159.786 109.787 160.259 110.12C160.733 110.453 161.099 110.863 161.359 111.35C161.619 111.83 161.749 112.383 161.749 113.01C161.749 113.67 161.609 114.263 161.329 114.79C161.056 115.31 160.669 115.753 160.169 116.12C159.669 116.48 159.079 116.757 158.399 116.95C157.719 117.137 156.979 117.227 156.179 117.22C155.186 117.213 154.309 117.03 153.549 116.67C152.796 116.31 152.203 115.807 151.769 115.16C151.336 114.507 151.103 113.733 151.069 112.84H152.919C153.059 113.74 153.426 114.43 154.019 114.91C154.613 115.39 155.356 115.63 156.249 115.63C156.956 115.63 157.573 115.52 158.099 115.3C158.626 115.073 159.033 114.763 159.319 114.37C159.606 113.977 159.749 113.517 159.749 112.99C159.749 112.41 159.589 111.92 159.269 111.52C158.949 111.12 158.513 110.817 157.959 110.61C157.406 110.397 156.789 110.287 156.109 110.28L154.809 110.25V108.68L156.049 108.65C156.683 108.637 157.249 108.517 157.749 108.29C158.249 108.057 158.643 107.753 158.929 107.38C159.223 107 159.369 106.583 159.369 106.13C159.369 105.73 159.246 105.36 158.999 105.02C158.753 104.673 158.396 104.397 157.929 104.19C157.469 103.983 156.909 103.88 156.249 103.88C155.729 103.88 155.233 103.983 154.759 104.19C154.286 104.39 153.896 104.7 153.589 105.12C153.283 105.54 153.119 106.083 153.099 106.75H151.259ZM169.06 102.34C169.987 102.34 170.817 102.493 171.55 102.8C172.283 103.107 172.863 103.553 173.29 104.14C173.717 104.727 173.93 105.44 173.93 106.28C173.93 107.067 173.717 107.727 173.29 108.26C172.87 108.793 172.327 109.2 171.66 109.48C172.147 109.573 172.61 109.8 173.05 110.16C173.497 110.52 173.863 110.957 174.15 111.47C174.437 111.983 174.58 112.52 174.58 113.08C174.58 113.913 174.35 114.64 173.89 115.26C173.437 115.88 172.797 116.363 171.97 116.71C171.143 117.05 170.173 117.22 169.06 117.22C167.953 117.22 166.987 117.05 166.16 116.71C165.333 116.363 164.69 115.88 164.23 115.26C163.777 114.64 163.55 113.913 163.55 113.08C163.55 112.52 163.69 111.983 163.97 111.47C164.257 110.957 164.623 110.52 165.07 110.16C165.517 109.8 165.983 109.573 166.47 109.48C165.81 109.2 165.263 108.793 164.83 108.26C164.403 107.727 164.19 107.067 164.19 106.28C164.19 105.44 164.403 104.727 164.83 104.14C165.257 103.553 165.837 103.107 166.57 102.8C167.31 102.493 168.14 102.34 169.06 102.34ZM169.06 108.7C169.94 108.7 170.653 108.483 171.2 108.05C171.753 107.617 172.03 107.013 172.03 106.24C172.03 105.46 171.753 104.847 171.2 104.4C170.647 103.947 169.933 103.72 169.06 103.72C168.187 103.72 167.473 103.947 166.92 104.4C166.367 104.853 166.09 105.467 166.09 106.24C166.09 107.013 166.367 107.617 166.92 108.05C167.473 108.483 168.187 108.7 169.06 108.7ZM169.06 115.72C170.133 115.72 170.99 115.48 171.63 115C172.27 114.513 172.59 113.87 172.59 113.07C172.59 112.543 172.443 112.073 172.15 111.66C171.863 111.247 171.457 110.923 170.93 110.69C170.403 110.45 169.78 110.33 169.06 110.33C168.347 110.33 167.727 110.45 167.2 110.69C166.68 110.923 166.273 111.247 165.98 111.66C165.693 112.073 165.55 112.543 165.55 113.07C165.55 113.87 165.867 114.513 166.5 115C167.14 115.48 167.993 115.72 169.06 115.72ZM179.259 117V105.49H176.469V104.28C177.336 104.28 178.009 104.217 178.489 104.09C178.969 103.963 179.309 103.77 179.509 103.51C179.716 103.25 179.829 102.927 179.849 102.54H181.169V117H179.259ZM191.354 102.54H193.234V111.68H195.634V113.31H193.234V117H191.424V113.31H184.614V111.62L191.354 102.54ZM186.384 111.68H191.384V104.97L186.384 111.68Z" fill="white"/>
<g opacity="0.5">
<path d="M216.125 113.125H219.875V103.125H209.875V106.875" stroke="white" stroke-width="1.5" stroke-linecap="round" stroke-linejoin="round"/>
<path d="M216.125 106.875H206.125V116.875H216.125V106.875Z" stroke="white" stroke-width="1.5" stroke-linecap="round" stroke-linejoin="round"/>
</g>
<path d="M199.219 157H197.553L194.522 151.932L192.842 153.885V157H191.281V146.878H192.842V151.953L197.147 146.878H198.911L195.607 150.84L199.219 157ZM201.419 153.731C201.419 154.165 201.489 154.555 201.629 154.9C201.773 155.241 201.99 155.511 202.28 155.712C202.569 155.908 202.928 156.006 203.358 156.006C203.787 156.006 204.158 155.908 204.471 155.712C204.788 155.516 204.996 155.224 205.094 154.837H206.48C206.396 155.332 206.197 155.752 205.885 156.097C205.577 156.442 205.203 156.704 204.765 156.881C204.326 157.054 203.866 157.14 203.386 157.14C202.7 157.14 202.095 156.993 201.573 156.699C201.05 156.4 200.642 155.976 200.348 155.425C200.058 154.874 199.914 154.219 199.914 153.458C199.914 152.707 200.047 152.044 200.313 151.47C200.579 150.891 200.964 150.439 201.468 150.112C201.972 149.785 202.578 149.622 203.288 149.622C203.988 149.622 204.576 149.771 205.052 150.07C205.532 150.369 205.896 150.789 206.144 151.33C206.391 151.867 206.515 152.501 206.515 153.234V153.731H201.419ZM201.419 152.758H205.087C205.087 152.38 205.021 152.037 204.891 151.729C204.76 151.416 204.559 151.171 204.289 150.994C204.023 150.812 203.687 150.721 203.281 150.721C202.865 150.721 202.52 150.821 202.245 151.022C201.969 151.223 201.762 151.479 201.622 151.792C201.486 152.105 201.419 152.427 201.419 152.758ZM213.764 149.762L211.132 157H209.865L207.226 149.762H208.612L210.446 155.103H210.544L212.378 149.762H213.764ZM216.646 149.762V157H215.204V149.762H216.646ZM216.674 146.885V148.362H215.169V146.885H216.674ZM218.878 157V149.762H220.341V150.805C220.458 150.609 220.614 150.425 220.81 150.252C221.011 150.079 221.256 149.939 221.545 149.832C221.839 149.725 222.178 149.671 222.56 149.671C223.013 149.671 223.431 149.762 223.813 149.944C224.201 150.121 224.511 150.401 224.744 150.784C224.978 151.162 225.094 151.652 225.094 152.254V157H223.596V152.415C223.596 151.897 223.456 151.512 223.176 151.26C222.901 151.008 222.544 150.882 222.105 150.882C221.811 150.882 221.531 150.931 221.265 151.029C220.999 151.127 220.785 151.276 220.621 151.477C220.458 151.673 220.376 151.92 220.376 152.219V157H218.878ZM234.259 157.14C233.359 157.14 232.582 156.935 231.928 156.524C231.275 156.113 230.771 155.523 230.416 154.753C230.066 153.978 229.891 153.05 229.891 151.967C229.891 150.875 230.071 149.939 230.43 149.16C230.794 148.376 231.31 147.776 231.977 147.361C232.645 146.946 233.429 146.738 234.329 146.738C234.866 146.738 235.363 146.829 235.82 147.011C236.282 147.193 236.688 147.44 237.038 147.753C237.393 148.066 237.673 148.42 237.878 148.817C238.084 149.214 238.2 149.629 238.228 150.063H236.632C236.567 149.704 236.427 149.372 236.212 149.069C236.002 148.761 235.734 148.514 235.407 148.327C235.081 148.14 234.712 148.047 234.301 148.047C233.755 148.047 233.272 148.182 232.852 148.453C232.432 148.724 232.103 149.146 231.865 149.72C231.632 150.289 231.515 151.027 231.515 151.932C231.515 152.637 231.588 153.236 231.732 153.731C231.882 154.226 232.085 154.625 232.341 154.928C232.598 155.231 232.899 155.453 233.244 155.593C233.59 155.728 233.958 155.796 234.35 155.796C234.738 155.796 235.078 155.728 235.372 155.593C235.666 155.458 235.911 155.283 236.107 155.068C236.308 154.853 236.462 154.622 236.569 154.375C236.681 154.123 236.747 153.88 236.765 153.647L236.814 152.828H234.448V151.75L238.375 151.764V157H237.29V155.516C237.113 155.791 236.891 156.053 236.625 156.3C236.359 156.547 236.033 156.75 235.645 156.909C235.258 157.063 234.796 157.14 234.259 157.14ZM242.117 149.762V157H240.675V149.762H242.117ZM242.145 146.885V148.362H240.64V146.885H242.145ZM246.309 157.098C245.88 157.098 245.534 157.042 245.273 156.93C245.016 156.818 244.82 156.669 244.685 156.482C244.55 156.291 244.459 156.076 244.412 155.838C244.37 155.595 244.349 155.346 244.349 155.089V146.598H245.826V154.935C245.826 155.271 245.891 155.528 246.022 155.705C246.157 155.882 246.363 155.983 246.638 156.006L247.016 156.02V156.972C246.899 157.009 246.778 157.04 246.652 157.063C246.531 157.086 246.416 157.098 246.309 157.098ZM252.29 157.14C251.884 157.14 251.539 157.086 251.254 156.979C250.97 156.872 250.734 156.734 250.547 156.566C250.365 156.398 250.221 156.221 250.113 156.034C250.011 155.847 249.931 155.675 249.875 155.516L249.714 157H248.587V146.598H250.099V150.861C250.165 150.735 250.26 150.6 250.386 150.455C250.517 150.31 250.678 150.175 250.869 150.049C251.065 149.923 251.292 149.82 251.548 149.741C251.805 149.662 252.094 149.622 252.416 149.622C253.317 149.622 254.031 149.939 254.558 150.574C255.09 151.209 255.356 152.133 255.356 153.346C255.356 154.111 255.242 154.779 255.013 155.348C254.785 155.913 254.442 156.354 253.984 156.671C253.532 156.984 252.967 157.14 252.29 157.14ZM251.996 156.013C252.547 156.013 252.995 155.798 253.34 155.369C253.69 154.94 253.865 154.249 253.865 153.297C253.865 152.476 253.702 151.848 253.375 151.414C253.053 150.98 252.587 150.763 251.975 150.763C251.537 150.763 251.18 150.861 250.904 151.057C250.629 151.248 250.426 151.533 250.295 151.911C250.169 152.289 250.104 152.751 250.099 153.297C250.099 154.263 250.249 154.958 250.547 155.383C250.846 155.803 251.329 156.013 251.996 156.013ZM258.088 153.731C258.088 154.165 258.158 154.555 258.298 154.9C258.443 155.241 258.66 155.511 258.949 155.712C259.239 155.908 259.598 156.006 260.027 156.006C260.457 156.006 260.828 155.908 261.14 155.712C261.458 155.516 261.665 155.224 261.763 154.837H263.149C263.065 155.332 262.867 155.752 262.554 156.097C262.246 156.442 261.873 156.704 261.434 156.881C260.996 157.054 260.536 157.14 260.055 157.14C259.369 157.14 258.765 156.993 258.242 156.699C257.72 156.4 257.311 155.976 257.017 155.425C256.728 154.874 256.583 154.219 256.583 153.458C256.583 152.707 256.716 152.044 256.982 151.47C257.248 150.891 257.633 150.439 258.137 150.112C258.641 149.785 259.248 149.622 259.957 149.622C260.657 149.622 261.245 149.771 261.721 150.07C262.202 150.369 262.566 150.789 262.813 151.33C263.061 151.867 263.184 152.501 263.184 153.234V153.731H258.088ZM258.088 152.758H261.756C261.756 152.38 261.691 152.037 261.56 151.729C261.43 151.416 261.229 151.171 260.958 150.994C260.692 150.812 260.356 150.721 259.95 150.721C259.535 150.721 259.19 150.821 258.914 151.022C258.639 151.223 258.431 151.479 258.291 151.792C258.156 152.105 258.088 152.427 258.088 152.758ZM264.857 157V149.762H266.292V151.246C266.413 150.891 266.581 150.595 266.796 150.357C267.015 150.114 267.269 149.932 267.559 149.811C267.848 149.685 268.154 149.622 268.476 149.622C268.574 149.622 268.667 149.629 268.756 149.643C268.844 149.652 268.914 149.671 268.966 149.699V151.141C268.905 151.113 268.826 151.094 268.728 151.085C268.634 151.076 268.553 151.069 268.483 151.064C268.165 151.041 267.876 151.057 267.615 151.113C267.353 151.169 267.127 151.262 266.936 151.393C266.749 151.524 266.604 151.694 266.502 151.904C266.404 152.114 266.355 152.361 266.355 152.646V157H264.857ZM274.397 150.84H272.773L272.78 155.159C272.78 155.397 272.803 155.572 272.85 155.684C272.901 155.791 272.985 155.861 273.102 155.894C273.223 155.922 273.386 155.936 273.592 155.936H274.439V156.909C274.345 156.946 274.205 156.979 274.019 157.007C273.837 157.035 273.601 157.049 273.312 157.049C272.775 157.049 272.357 156.977 272.059 156.832C271.765 156.687 271.559 156.48 271.443 156.209C271.331 155.934 271.275 155.602 271.275 155.215V150.84H270.099V149.762H271.317L271.688 147.634H272.773V149.755H274.397V150.84Z" fill="white"/>
</g>
<defs>
<filter id="filter0_d_1_3529" x="0" y="0" width="304" height="204" filterUnits="userSpaceOnUse" color-interpolation-filters="sRGB">
<feFlood flood-opacity="0" result="BackgroundImageFix"/>
<feColorMatrix in="SourceAlpha" type="matrix" values="0 0 0 0 0 0 0 0 0 0 0 0 0 0 0 0 0 0 127 0" result="hardAlpha"/>
<feOffset dy="4"/>
<feGaussianBlur stdDeviation="2"/>
<feComposite in2="hardAlpha" operator="out"/>
<feColorMatrix type="matrix" values="0 0 0 0 0 0 0 0 0 0 0 0 0 0 0 0 0 0 0.25 0"/>
<feBlend mode="normal" in2="BackgroundImageFix" result="effect1_dropShadow_1_3529"/>
<feBlend mode="normal" in="SourceGraphic" in2="effect1_dropShadow_1_3529" result="shape"/>
</filter>
<radialGradient id="paint0_radial_1_3529" cx="0" cy="0" r="1" gradientUnits="userSpaceOnUse" gradientTransform="translate(4) rotate(33.4056) scale(347.99 511.033)">
<stop stop-color="#1B6392"/>
<stop offset="1" stop-color="#124261"/>
</radialGradient>
<clipPath id="clip0_1_3529">
<rect width="40" height="40" fill="white" transform="translate(28 132)"/>
</clipPath>
</defs>
</svg>
